  0
SECTION
  2
HEADER
  9
$ACADVER
  1
AC1014
  9
$HANDSEED
  5
FFFF
  9
$INSUNITS
 70
     4
  9
$MEASUREMENT
 70
     1
  0
ENDSEC
  0
SECTION
  2
TABLES
  0
TABLE
  2
VPORT
  5
8
330
0
100
AcDbSymbolTable
 70
     4
  0
VPORT
  5
2E
330
8
100
AcDbSymbolTableRecord
100
AcDbViewportTableRecord
  2
*ACTIVE
 70
     0
 10
0.0
 20
0.0
 11
1.0
 21
1.0
 12
210.0
 22
148.5
 13
0.0
 23
0.0
 14
10.0
 24
10.0
 15
10.0
 25
10.0
 16
0.0
 26
0.0
 36
1.0
 17
0.0
 27
0.0
 37
0.0
 40
341.0
 41
1.24
 42
50.0
 43
0.0
 44
0.0
 50
0.0
 51
0.0
 71
     0
 72
   100
 73
     1
 74
     3
 75
     0
 76
     0
 77
     0
 78
     0
  0
ENDTAB
  0
TABLE
  2
LTYPE
  5
5
330
0
100
AcDbSymbolTable
 70
     1
  0
LTYPE
  5
14
330
5
100
AcDbSymbolTableRecord
100
AcDbLinetypeTableRecord
  2
BYBLOCK
 70
     0
  3

 72
    65
 73
     0
 40
0.0
  0
LTYPE
  5
15
330
5
100
AcDbSymbolTableRecord
100
AcDbLinetypeTableRecord
  2
BYLAYER
 70
     0
  3

 72
    65
 73
     0
 40
0.0
  0
LTYPE
  5
16
330
5
100
AcDbSymbolTableRecord
100
AcDbLinetypeTableRecord
  2
CONTINUOUS
 70
     0
  3
Solid line
 72
    65
 73
     0
 40
0.0
  0
ENDTAB
  0
TABLE
  2
LAYER
  5
2
100
AcDbSymbolTable
 70
1
  0
LAYER
  5
50
100
AcDbSymbolTableRecord
100
AcDbLayerTableRecord
  2
0
 70
0
  6
CONTINUOUS
  0
ENDTAB
  0
TABLE
  2
STYLE
  5
3
330
0
100
AcDbSymbolTable
 70
     1
  0
STYLE
  5
11
330
3
100
AcDbSymbolTableRecord
100
AcDbTextStyleTableRecord
  2
STANDARD
 70
     0
 40
0.0
 41
1.0
 50
0.0
 71
     0
 42
2.5
  3
txt
  4

  0
ENDTAB
  0
TABLE
  2
VIEW
  5
6
330
0
100
AcDbSymbolTable
 70
     0
  0
ENDTAB
  0
TABLE
  2
UCS
  5
7
330
0
100
AcDbSymbolTable
 70
     0
  0
ENDTAB
  0
TABLE
  2
APPID
  5
9
330
0
100
AcDbSymbolTable
 70
     2
  0
APPID
  5
12
330
9
100
AcDbSymbolTableRecord
100
AcDbRegAppTableRecord
  2
ACAD
 70
     0
  0
ENDTAB
  0
TABLE
  2
DIMSTYLE
  5
A
330
0
100
AcDbSymbolTable
 70
     1
  0
DIMSTYLE
105
27
330
A
100
AcDbSymbolTableRecord
100
AcDbDimStyleTableRecord
  2
ISO-25
 70
     0
  3

  4

  5

  6

  7

 40
1.0
 41
2.5
 42
0.625
 43
3.75
 44
1.25
 45
0.0
 46
0.0
 47
0.0
 48
0.0
140
2.5
141
2.5
142
0.0
143
0.03937007874016
144
1.0
145
0.0
146
1.0
147
0.625
 71
     0
 72
     0
 73
     0
 74
     0
 75
     0
 76
     0
 77
     1
 78
     8
170
     0
171
     3
172
     1
173
     0
174
     0
175
     0
176
     0
177
     0
178
     0
270
     2
271
     2
272
     2
273
     2
274
     3
340
11
275
     0
280
     0
281
     0
282
     0
283
     0
284
     8
285
     0
286
     0
287
     3
288
     0
  0
ENDTAB
  0
TABLE
  2
BLOCK_RECORD
  5
1
330
0
100
AcDbSymbolTable
 70
     1
  0
BLOCK_RECORD
  5
1F
330
1
100
AcDbSymbolTableRecord
100
AcDbBlockTableRecord
  2
*MODEL_SPACE
  0
BLOCK_RECORD
  5
1B
330
1
100
AcDbSymbolTableRecord
100
AcDbBlockTableRecord
  2
*PAPER_SPACE
  0
ENDTAB
  0
ENDSEC
  0
SECTION
  2
BLOCKS
  0
BLOCK
  5
20
330
1F
100
AcDbEntity
  8
0
100
AcDbBlockBegin
  2
*MODEL_SPACE
 70
     0
 10
0.0
 20
0.0
 30
0.0
  3
*MODEL_SPACE
  1

  0
ENDBLK
  5
21
330
1F
100
AcDbEntity
  8
0
100
AcDbBlockEnd
  0
BLOCK
  5
1C
330
1B
100
AcDbEntity
 67
     1
  8
0
100
AcDbBlockBegin
  2
*PAPER_SPACE
  1

  0
ENDBLK
  5
1D
330
1B
100
AcDbEntity
 67
     1
  8
0
100
AcDbBlockEnd
  0
ENDSEC
  0
SECTION
  2
ENTITIES
  0
SPLINE
  5
100
100
AcDbEntity
  8
0
 62
7
100
AcDbSpline
 70
8
 71
3
 72
8
 73
4
 74
0
 40
0
 40
0
 40
0
 40
0
 40
1
 40
1
 40
1
 40
1
 10
53.441600
 20
30.781900
 30
0.0
 10
52.895576
 20
30.781900
 30
0.0
 10
52.403317
 20
30.452983
 30
0.0
 10
52.194363
 20
29.948523
 30
0.0
  0
SPLINE
  5
101
100
AcDbEntity
  8
0
 62
7
100
AcDbSpline
 70
8
 71
3
 72
8
 73
4
 74
0
 40
0
 40
0
 40
0
 40
0
 40
1
 40
1
 40
1
 40
1
 10
52.194363
 20
29.948523
 30
0.0
 10
51.985408
 20
29.444062
 30
0.0
 10
52.100909
 20
28.863403
 30
0.0
 10
52.487006
 20
28.477306
 30
0.0
  0
SPLINE
  5
102
100
AcDbEntity
  8
0
 62
7
100
AcDbSpline
 70
8
 71
3
 72
8
 73
4
 74
0
 40
0
 40
0
 40
0
 40
0
 40
1
 40
1
 40
1
 40
1
 10
52.487006
 20
28.477306
 30
0.0
 10
52.873103
 20
28.091209
 30
0.0
 10
53.453762
 20
27.975708
 30
0.0
 10
53.958223
 20
28.184663
 30
0.0
  0
SPLINE
  5
103
100
AcDbEntity
  8
0
 62
7
100
AcDbSpline
 70
8
 71
3
 72
8
 73
4
 74
0
 40
0
 40
0
 40
0
 40
0
 40
1
 40
1
 40
1
 40
1
 10
53.958223
 20
28.184663
 30
0.0
 10
54.462683
 20
28.393617
 30
0.0
 10
54.791600
 20
28.885876
 30
0.0
 10
54.791600
 20
29.431900
 30
0.0
  0
SPLINE
  5
104
100
AcDbEntity
  8
0
 62
7
100
AcDbSpline
 70
8
 71
3
 72
8
 73
4
 74
0
 40
0
 40
0
 40
0
 40
0
 40
1
 40
1
 40
1
 40
1
 10
54.791600
 20
29.431900
 30
0.0
 10
54.791600
 20
29.789942
 30
0.0
 10
54.649368
 20
30.133320
 30
0.0
 10
54.396194
 20
30.386494
 30
0.0
  0
SPLINE
  5
105
100
AcDbEntity
  8
0
 62
7
100
AcDbSpline
 70
8
 71
3
 72
8
 73
4
 74
0
 40
0
 40
0
 40
0
 40
0
 40
1
 40
1
 40
1
 40
1
 10
54.396194
 20
30.386494
 30
0.0
 10
54.143020
 20
30.639668
 30
0.0
 10
53.799642
 20
30.781900
 30
0.0
 10
53.441600
 20
30.781900
 30
0.0
  0
SPLINE
  5
106
100
AcDbEntity
  8
0
 62
7
100
AcDbSpline
 70
8
 71
3
 72
8
 73
4
 74
0
 40
0
 40
0
 40
0
 40
0
 40
1
 40
1
 40
1
 40
1
 10
78.943200
 20
49.323900
 30
0.0
 10
78.397176
 20
49.323900
 30
0.0
 10
77.904917
 20
48.994983
 30
0.0
 10
77.695963
 20
48.490523
 30
0.0
  0
SPLINE
  5
107
100
AcDbEntity
  8
0
 62
7
100
AcDbSpline
 70
8
 71
3
 72
8
 73
4
 74
0
 40
0
 40
0
 40
0
 40
0
 40
1
 40
1
 40
1
 40
1
 10
77.695963
 20
48.490523
 30
0.0
 10
77.487008
 20
47.986062
 30
0.0
 10
77.602509
 20
47.405403
 30
0.0
 10
77.988606
 20
47.019306
 30
0.0
  0
SPLINE
  5
108
100
AcDbEntity
  8
0
 62
7
100
AcDbSpline
 70
8
 71
3
 72
8
 73
4
 74
0
 40
0
 40
0
 40
0
 40
0
 40
1
 40
1
 40
1
 40
1
 10
77.988606
 20
47.019306
 30
0.0
 10
78.374703
 20
46.633209
 30
0.0
 10
78.955362
 20
46.517708
 30
0.0
 10
79.459823
 20
46.726663
 30
0.0
  0
SPLINE
  5
109
100
AcDbEntity
  8
0
 62
7
100
AcDbSpline
 70
8
 71
3
 72
8
 73
4
 74
0
 40
0
 40
0
 40
0
 40
0
 40
1
 40
1
 40
1
 40
1
 10
79.459823
 20
46.726663
 30
0.0
 10
79.964283
 20
46.935617
 30
0.0
 10
80.293200
 20
47.427876
 30
0.0
 10
80.293200
 20
47.973900
 30
0.0
  0
SPLINE
  5
10a
100
AcDbEntity
  8
0
 62
7
100
AcDbSpline
 70
8
 71
3
 72
8
 73
4
 74
0
 40
0
 40
0
 40
0
 40
0
 40
1
 40
1
 40
1
 40
1
 10
80.293200
 20
47.973900
 30
0.0
 10
80.293200
 20
48.719484
 30
0.0
 10
79.688784
 20
49.323900
 30
0.0
 10
78.943200
 20
49.323900
 30
0.0
  0
LWPOLYLINE
  5
10b
100
AcDbEntity
  8
0
 62
7
100
AcDbPolyline
 90
1
 70
1
 10
53.441600
 20
30.781900
 30
0.0
  0
SPLINE
  5
10c
100
AcDbEntity
  8
0
 62
7
100
AcDbSpline
 70
8
 71
3
 72
8
 73
4
 74
0
 40
0
 40
0
 40
0
 40
0
 40
1
 40
1
 40
1
 40
1
 10
154.246700
 20
44.891400
 30
0.0
 10
153.700676
 20
44.891400
 30
0.0
 10
153.208417
 20
44.562483
 30
0.0
 10
152.999463
 20
44.058023
 30
0.0
  0
SPLINE
  5
10d
100
AcDbEntity
  8
0
 62
7
100
AcDbSpline
 70
8
 71
3
 72
8
 73
4
 74
0
 40
0
 40
0
 40
0
 40
0
 40
1
 40
1
 40
1
 40
1
 10
152.999463
 20
44.058023
 30
0.0
 10
152.790508
 20
43.553562
 30
0.0
 10
152.906009
 20
42.972903
 30
0.0
 10
153.292106
 20
42.586806
 30
0.0
  0
SPLINE
  5
10e
100
AcDbEntity
  8
0
 62
7
100
AcDbSpline
 70
8
 71
3
 72
8
 73
4
 74
0
 40
0
 40
0
 40
0
 40
0
 40
1
 40
1
 40
1
 40
1
 10
153.292106
 20
42.586806
 30
0.0
 10
153.678203
 20
42.200709
 30
0.0
 10
154.258862
 20
42.085208
 30
0.0
 10
154.763323
 20
42.294163
 30
0.0
  0
SPLINE
  5
10f
100
AcDbEntity
  8
0
 62
7
100
AcDbSpline
 70
8
 71
3
 72
8
 73
4
 74
0
 40
0
 40
0
 40
0
 40
0
 40
1
 40
1
 40
1
 40
1
 10
154.763323
 20
42.294163
 30
0.0
 10
155.267783
 20
42.503117
 30
0.0
 10
155.596700
 20
42.995376
 30
0.0
 10
155.596700
 20
43.541400
 30
0.0
  0
SPLINE
  5
110
100
AcDbEntity
  8
0
 62
7
100
AcDbSpline
 70
8
 71
3
 72
8
 73
4
 74
0
 40
0
 40
0
 40
0
 40
0
 40
1
 40
1
 40
1
 40
1
 10
155.596700
 20
43.541400
 30
0.0
 10
155.596700
 20
43.899442
 30
0.0
 10
155.454468
 20
44.242820
 30
0.0
 10
155.201294
 20
44.495994
 30
0.0
  0
SPLINE
  5
111
100
AcDbEntity
  8
0
 62
7
100
AcDbSpline
 70
8
 71
3
 72
8
 73
4
 74
0
 40
0
 40
0
 40
0
 40
0
 40
1
 40
1
 40
1
 40
1
 10
155.201294
 20
44.495994
 30
0.0
 10
154.948120
 20
44.749168
 30
0.0
 10
154.604742
 20
44.891400
 30
0.0
 10
154.246700
 20
44.891400
 30
0.0
  0
LWPOLYLINE
  5
112
100
AcDbEntity
  8
0
 62
7
100
AcDbPolyline
 90
1
 70
1
 10
78.943200
 20
49.323900
 30
0.0
  0
SPLINE
  5
113
100
AcDbEntity
  8
0
 62
7
100
AcDbSpline
 70
8
 71
3
 72
8
 73
4
 74
0
 40
0
 40
0
 40
0
 40
0
 40
1
 40
1
 40
1
 40
1
 10
154.246700
 20
83.091400
 30
0.0
 10
153.700676
 20
83.091400
 30
0.0
 10
153.208417
 20
82.762483
 30
0.0
 10
152.999463
 20
82.258023
 30
0.0
  0
SPLINE
  5
114
100
AcDbEntity
  8
0
 62
7
100
AcDbSpline
 70
8
 71
3
 72
8
 73
4
 74
0
 40
0
 40
0
 40
0
 40
0
 40
1
 40
1
 40
1
 40
1
 10
152.999463
 20
82.258023
 30
0.0
 10
152.790508
 20
81.753562
 30
0.0
 10
152.906009
 20
81.172903
 30
0.0
 10
153.292106
 20
80.786806
 30
0.0
  0
SPLINE
  5
115
100
AcDbEntity
  8
0
 62
7
100
AcDbSpline
 70
8
 71
3
 72
8
 73
4
 74
0
 40
0
 40
0
 40
0
 40
0
 40
1
 40
1
 40
1
 40
1
 10
153.292106
 20
80.786806
 30
0.0
 10
153.678203
 20
80.400709
 30
0.0
 10
154.258862
 20
80.285208
 30
0.0
 10
154.763323
 20
80.494163
 30
0.0
  0
SPLINE
  5
116
100
AcDbEntity
  8
0
 62
7
100
AcDbSpline
 70
8
 71
3
 72
8
 73
4
 74
0
 40
0
 40
0
 40
0
 40
0
 40
1
 40
1
 40
1
 40
1
 10
154.763323
 20
80.494163
 30
0.0
 10
155.267783
 20
80.703117
 30
0.0
 10
155.596700
 20
81.195376
 30
0.0
 10
155.596700
 20
81.741400
 30
0.0
  0
SPLINE
  5
117
100
AcDbEntity
  8
0
 62
7
100
AcDbSpline
 70
8
 71
3
 72
8
 73
4
 74
0
 40
0
 40
0
 40
0
 40
0
 40
1
 40
1
 40
1
 40
1
 10
155.596700
 20
81.741400
 30
0.0
 10
155.596700
 20
82.099442
 30
0.0
 10
155.454468
 20
82.442820
 30
0.0
 10
155.201294
 20
82.695994
 30
0.0
  0
SPLINE
  5
118
100
AcDbEntity
  8
0
 62
7
100
AcDbSpline
 70
8
 71
3
 72
8
 73
4
 74
0
 40
0
 40
0
 40
0
 40
0
 40
1
 40
1
 40
1
 40
1
 10
155.201294
 20
82.695994
 30
0.0
 10
154.948120
 20
82.949168
 30
0.0
 10
154.604742
 20
83.091400
 30
0.0
 10
154.246700
 20
83.091400
 30
0.0
  0
LWPOLYLINE
  5
119
100
AcDbEntity
  8
0
 62
7
100
AcDbPolyline
 90
1
 70
1
 10
154.246700
 20
44.891400
 30
0.0
  0
SPLINE
  5
11a
100
AcDbEntity
  8
0
 62
7
100
AcDbSpline
 70
8
 71
3
 72
8
 73
4
 74
0
 40
0
 40
0
 40
0
 40
0
 40
1
 40
1
 40
1
 40
1
 10
78.872100
 20
87.482400
 30
0.0
 10
78.326076
 20
87.482400
 30
0.0
 10
77.833817
 20
87.153483
 30
0.0
 10
77.624863
 20
86.649023
 30
0.0
  0
SPLINE
  5
11b
100
AcDbEntity
  8
0
 62
7
100
AcDbSpline
 70
8
 71
3
 72
8
 73
4
 74
0
 40
0
 40
0
 40
0
 40
0
 40
1
 40
1
 40
1
 40
1
 10
77.624863
 20
86.649023
 30
0.0
 10
77.415908
 20
86.144562
 30
0.0
 10
77.531409
 20
85.563903
 30
0.0
 10
77.917506
 20
85.177806
 30
0.0
  0
SPLINE
  5
11c
100
AcDbEntity
  8
0
 62
7
100
AcDbSpline
 70
8
 71
3
 72
8
 73
4
 74
0
 40
0
 40
0
 40
0
 40
0
 40
1
 40
1
 40
1
 40
1
 10
77.917506
 20
85.177806
 30
0.0
 10
78.303603
 20
84.791709
 30
0.0
 10
78.884262
 20
84.676208
 30
0.0
 10
79.388723
 20
84.885163
 30
0.0
  0
SPLINE
  5
11d
100
AcDbEntity
  8
0
 62
7
100
AcDbSpline
 70
8
 71
3
 72
8
 73
4
 74
0
 40
0
 40
0
 40
0
 40
0
 40
1
 40
1
 40
1
 40
1
 10
79.388723
 20
84.885163
 30
0.0
 10
79.893183
 20
85.094117
 30
0.0
 10
80.222100
 20
85.586376
 30
0.0
 10
80.222100
 20
86.132400
 30
0.0
  0
SPLINE
  5
11e
100
AcDbEntity
  8
0
 62
7
100
AcDbSpline
 70
8
 71
3
 72
8
 73
4
 74
0
 40
0
 40
0
 40
0
 40
0
 40
1
 40
1
 40
1
 40
1
 10
80.222100
 20
86.132400
 30
0.0
 10
80.222100
 20
86.877984
 30
0.0
 10
79.617684
 20
87.482400
 30
0.0
 10
78.872100
 20
87.482400
 30
0.0
  0
LWPOLYLINE
  5
11f
100
AcDbEntity
  8
0
 62
7
100
AcDbPolyline
 90
1
 70
1
 10
154.246700
 20
83.091400
 30
0.0
  0
SPLINE
  5
120
100
AcDbEntity
  8
0
 62
7
100
AcDbSpline
 70
8
 71
3
 72
8
 73
4
 74
0
 40
0
 40
0
 40
0
 40
0
 40
1
 40
1
 40
1
 40
1
 10
15.929100
 20
161.062100
 30
0.0
 10
15.908877
 20
161.062100
 30
0.0
 10
15.890645
 20
161.049918
 30
0.0
 10
15.882906
 20
161.031234
 30
0.0
  0
SPLINE
  5
121
100
AcDbEntity
  8
0
 62
7
100
AcDbSpline
 70
8
 71
3
 72
8
 73
4
 74
0
 40
0
 40
0
 40
0
 40
0
 40
1
 40
1
 40
1
 40
1
 10
15.882906
 20
161.031234
 30
0.0
 10
15.875167
 20
161.012550
 30
0.0
 10
15.879445
 20
160.991045
 30
0.0
 10
15.893745
 20
160.976745
 30
0.0
  0
SPLINE
  5
122
100
AcDbEntity
  8
0
 62
7
100
AcDbSpline
 70
8
 71
3
 72
8
 73
4
 74
0
 40
0
 40
0
 40
0
 40
0
 40
1
 40
1
 40
1
 40
1
 10
15.893745
 20
160.976745
 30
0.0
 10
15.908045
 20
160.962445
 30
0.0
 10
15.929550
 20
160.958167
 30
0.0
 10
15.948234
 20
160.965906
 30
0.0
  0
SPLINE
  5
123
100
AcDbEntity
  8
0
 62
7
100
AcDbSpline
 70
8
 71
3
 72
8
 73
4
 74
0
 40
0
 40
0
 40
0
 40
0
 40
1
 40
1
 40
1
 40
1
 10
15.948234
 20
160.965906
 30
0.0
 10
15.966918
 20
160.973645
 30
0.0
 10
15.979100
 20
160.991877
 30
0.0
 10
15.979100
 20
161.012100
 30
0.0
  0
SPLINE
  5
124
100
AcDbEntity
  8
0
 62
7
100
AcDbSpline
 70
8
 71
3
 72
8
 73
4
 74
0
 40
0
 40
0
 40
0
 40
0
 40
1
 40
1
 40
1
 40
1
 10
15.979100
 20
161.012100
 30
0.0
 10
15.979100
 20
161.025361
 30
0.0
 10
15.973832
 20
161.038079
 30
0.0
 10
15.964455
 20
161.047455
 30
0.0
  0
SPLINE
  5
125
100
AcDbEntity
  8
0
 62
7
100
AcDbSpline
 70
8
 71
3
 72
8
 73
4
 74
0
 40
0
 40
0
 40
0
 40
0
 40
1
 40
1
 40
1
 40
1
 10
15.964455
 20
161.047455
 30
0.0
 10
15.955079
 20
161.056832
 30
0.0
 10
15.942361
 20
161.062100
 30
0.0
 10
15.929100
 20
161.062100
 30
0.0
  0
LWPOLYLINE
  5
126
100
AcDbEntity
  8
0
 62
7
100
AcDbPolyline
 90
1
 70
1
 10
78.872100
 20
87.482400
 30
0.0
  0
SPLINE
  5
127
100
AcDbEntity
  8
0
 62
7
100
AcDbSpline
 70
8
 71
3
 72
8
 73
4
 74
0
 40
0
 40
0
 40
0
 40
0
 40
1
 40
1
 40
1
 40
1
 10
0.050000
 20
188.544200
 30
0.0
 10
0.029777
 20
188.544200
 30
0.0
 10
0.011545
 20
188.532018
 30
0.0
 10
0.003806
 20
188.513334
 30
0.0
  0
SPLINE
  5
128
100
AcDbEntity
  8
0
 62
7
100
AcDbSpline
 70
8
 71
3
 72
8
 73
4
 74
0
 40
0
 40
0
 40
0
 40
0
 40
1
 40
1
 40
1
 40
1
 10
0.003806
 20
188.513334
 30
0.0
 10
-0.003933
 20
188.494650
 30
0.0
 10
0.000345
 20
188.473145
 30
0.0
 10
0.014645
 20
188.458845
 30
0.0
  0
SPLINE
  5
129
100
AcDbEntity
  8
0
 62
7
100
AcDbSpline
 70
8
 71
3
 72
8
 73
4
 74
0
 40
0
 40
0
 40
0
 40
0
 40
1
 40
1
 40
1
 40
1
 10
0.014645
 20
188.458845
 30
0.0
 10
0.028945
 20
188.444545
 30
0.0
 10
0.050450
 20
188.440267
 30
0.0
 10
0.069134
 20
188.448006
 30
0.0
  0
SPLINE
  5
12a
100
AcDbEntity
  8
0
 62
7
100
AcDbSpline
 70
8
 71
3
 72
8
 73
4
 74
0
 40
0
 40
0
 40
0
 40
0
 40
1
 40
1
 40
1
 40
1
 10
0.069134
 20
188.448006
 30
0.0
 10
0.087818
 20
188.455745
 30
0.0
 10
0.100000
 20
188.473977
 30
0.0
 10
0.100000
 20
188.494200
 30
0.0
  0
SPLINE
  5
12b
100
AcDbEntity
  8
0
 62
7
100
AcDbSpline
 70
8
 71
3
 72
8
 73
4
 74
0
 40
0
 40
0
 40
0
 40
0
 40
1
 40
1
 40
1
 40
1
 10
0.100000
 20
188.494200
 30
0.0
 10
0.100000
 20
188.507461
 30
0.0
 10
0.094732
 20
188.520179
 30
0.0
 10
0.085355
 20
188.529555
 30
0.0
  0
SPLINE
  5
12c
100
AcDbEntity
  8
0
 62
7
100
AcDbSpline
 70
8
 71
3
 72
8
 73
4
 74
0
 40
0
 40
0
 40
0
 40
0
 40
1
 40
1
 40
1
 40
1
 10
0.085355
 20
188.529555
 30
0.0
 10
0.075979
 20
188.538932
 30
0.0
 10
0.063261
 20
188.544200
 30
0.0
 10
0.050000
 20
188.544200
 30
0.0
  0
LWPOLYLINE
  5
12d
100
AcDbEntity
  8
0
 62
7
100
AcDbPolyline
 90
1
 70
1
 10
15.929100
 20
161.062100
 30
0.0
  0
LWPOLYLINE
  5
12e
100
AcDbEntity
  8
0
 62
7
100
AcDbPolyline
 90
1
 70
1
 10
0.050000
 20
188.544200
 30
0.0
  0
LWPOLYLINE
  5
12f
100
AcDbEntity
  8
0
 62
7
100
AcDbPolyline
 90
2
 70
0
 10
39.676700
 20
72.551400
 30
0.0
 10
39.676700
 20
103.051400
 30
0.0
  0
LWPOLYLINE
  5
130
100
AcDbEntity
  8
0
 62
7
100
AcDbPolyline
 90
2
 70
0
 10
52.676700
 20
72.551400
 30
0.0
 10
39.676700
 20
72.551400
 30
0.0
  0
LWPOLYLINE
  5
131
100
AcDbEntity
  8
0
 62
7
100
AcDbPolyline
 90
2
 70
0
 10
52.676700
 20
103.051400
 30
0.0
 10
52.676700
 20
72.551400
 30
0.0
  0
LWPOLYLINE
  5
132
100
AcDbEntity
  8
0
 62
7
100
AcDbPolyline
 90
2
 70
0
 10
39.676700
 20
103.051400
 30
0.0
 10
52.676700
 20
103.051400
 30
0.0
  0
LWPOLYLINE
  5
133
100
AcDbEntity
  8
0
 62
7
100
AcDbPolyline
 90
3
 70
0
 10
35.255200
 20
31.717900
 30
0.0
 10
35.318700
 20
30.892400
 30
0.0
 10
35.445700
 20
29.431900
 30
0.0
  0
LWPOLYLINE
  5
134
100
AcDbEntity
  8
0
 62
7
100
AcDbPolyline
 90
2
 70
0
 10
52.141500
 20
0.269700
 30
0.0
 10
64.866500
 20
7.636200
 30
0.0
  0
LWPOLYLINE
  5
135
100
AcDbEntity
  8
0
 62
7
100
AcDbPolyline
 90
2
 70
0
 10
173.058600
 20
100.575000
 30
0.0
 10
172.342200
 20
100.920100
 30
0.0
  0
LWPOLYLINE
  5
136
100
AcDbEntity
  8
0
 62
7
100
AcDbPolyline
 90
2
 70
0
 10
174.048400
 20
99.396200
 30
0.0
 10
174.251600
 20
98.685000
 30
0.0
  0
LWPOLYLINE
  5
137
100
AcDbEntity
  8
0
 62
7
100
AcDbPolyline
 90
2
 70
0
 10
173.680100
 20
100.031200
 30
0.0
 10
174.048400
 20
99.396200
 30
0.0
  0
LWPOLYLINE
  5
138
100
AcDbEntity
  8
0
 62
7
100
AcDbPolyline
 90
2
 70
0
 10
130.266100
 20
22.347800
 30
0.0
 10
172.727600
 20
22.347900
 30
0.0
  0
LWPOLYLINE
  5
139
100
AcDbEntity
  8
0
 62
7
100
AcDbPolyline
 90
2
 70
0
 10
129.560200
 20
22.276800
 30
0.0
 10
130.266100
 20
22.347800
 30
0.0
  0
LWPOLYLINE
  5
13a
100
AcDbEntity
  8
0
 62
7
100
AcDbPolyline
 90
2
 70
0
 10
128.903000
 20
22.073000
 30
0.0
 10
129.560200
 20
22.276800
 30
0.0
  0
LWPOLYLINE
  5
13b
100
AcDbEntity
  8
0
 62
7
100
AcDbPolyline
 90
2
 70
0
 10
128.308500
 20
21.750500
 30
0.0
 10
128.903000
 20
22.073000
 30
0.0
  0
LWPOLYLINE
  5
13c
100
AcDbEntity
  8
0
 62
7
100
AcDbPolyline
 90
2
 70
0
 10
127.790600
 20
21.323300
 30
0.0
 10
128.308500
 20
21.750500
 30
0.0
  0
LWPOLYLINE
  5
13d
100
AcDbEntity
  8
0
 62
7
100
AcDbPolyline
 90
2
 70
0
 10
127.363400
 20
20.805400
 30
0.0
 10
127.790600
 20
21.323300
 30
0.0
  0
LWPOLYLINE
  5
13e
100
AcDbEntity
  8
0
 62
7
100
AcDbPolyline
 90
2
 70
0
 10
127.040900
 20
20.210900
 30
0.0
 10
127.363400
 20
20.805400
 30
0.0
  0
LWPOLYLINE
  5
13f
100
AcDbEntity
  8
0
 62
7
100
AcDbPolyline
 90
2
 70
0
 10
126.837100
 20
19.553700
 30
0.0
 10
127.040900
 20
20.210900
 30
0.0
  0
LWPOLYLINE
  5
140
100
AcDbEntity
  8
0
 62
7
100
AcDbPolyline
 90
2
 70
0
 10
126.740900
 20
18.845200
 30
0.0
 10
126.837100
 20
19.553700
 30
0.0
  0
LWPOLYLINE
  5
141
100
AcDbEntity
  8
0
 62
7
100
AcDbPolyline
 90
2
 70
0
 10
172.342200
 20
100.920100
 30
0.0
 10
126.250700
 20
107.854400
 30
0.0
  0
LWPOLYLINE
  5
142
100
AcDbEntity
  8
0
 62
7
100
AcDbPolyline
 90
2
 70
0
 10
126.078700
 20
7.892200
 30
0.0
 10
125.823900
 20
7.754000
 30
0.0
  0
LWPOLYLINE
  5
143
100
AcDbEntity
  8
0
 62
7
100
AcDbPolyline
 90
2
 70
0
 10
126.300700
 20
8.075300
 30
0.0
 10
126.078700
 20
7.892200
 30
0.0
  0
LWPOLYLINE
  5
144
100
AcDbEntity
  8
0
 62
7
100
AcDbPolyline
 90
2
 70
0
 10
126.483800
 20
8.297200
 30
0.0
 10
126.300700
 20
8.075300
 30
0.0
  0
LWPOLYLINE
  5
145
100
AcDbEntity
  8
0
 62
7
100
AcDbPolyline
 90
2
 70
0
 10
126.622000
 20
8.552000
 30
0.0
 10
126.483800
 20
8.297200
 30
0.0
  0
LWPOLYLINE
  5
146
100
AcDbEntity
  8
0
 62
7
100
AcDbPolyline
 90
2
 70
0
 10
126.709300
 20
8.833700
 30
0.0
 10
126.622000
 20
8.552000
 30
0.0
  0
LWPOLYLINE
  5
147
100
AcDbEntity
  8
0
 62
7
100
AcDbPolyline
 90
2
 70
0
 10
126.739800
 20
9.113800
 30
0.0
 10
126.709300
 20
8.833700
 30
0.0
  0
LWPOLYLINE
  5
148
100
AcDbEntity
  8
0
 62
7
100
AcDbPolyline
 90
2
 70
0
 10
174.251600
 20
98.685000
 30
0.0
 10
174.251600
 20
23.856600
 30
0.0
  0
LWPOLYLINE
  5
149
100
AcDbEntity
  8
0
 62
7
100
AcDbPolyline
 90
2
 70
0
 10
35.710400
 20
107.671700
 30
0.0
 10
35.888800
 20
107.768500
 30
0.0
  0
LWPOLYLINE
  5
14a
100
AcDbEntity
  8
0
 62
7
100
AcDbPolyline
 90
2
 70
0
 10
35.555000
 20
107.543600
 30
0.0
 10
35.710400
 20
107.671700
 30
0.0
  0
LWPOLYLINE
  5
14b
100
AcDbEntity
  8
0
 62
7
100
AcDbPolyline
 90
2
 70
0
 10
35.426900
 20
107.388200
 30
0.0
 10
35.555000
 20
107.543600
 30
0.0
  0
LWPOLYLINE
  5
14c
100
AcDbEntity
  8
0
 62
7
100
AcDbPolyline
 90
2
 70
0
 10
35.330100
 20
107.209800
 30
0.0
 10
35.426900
 20
107.388200
 30
0.0
  0
LWPOLYLINE
  5
14d
100
AcDbEntity
  8
0
 62
7
100
AcDbPolyline
 90
2
 70
0
 10
35.269000
 20
107.012700
 30
0.0
 10
35.330100
 20
107.209800
 30
0.0
  0
LWPOLYLINE
  5
14e
100
AcDbEntity
  8
0
 62
7
100
AcDbPolyline
 90
2
 70
0
 10
35.247000
 20
106.797000
 30
0.0
 10
35.269000
 20
107.012700
 30
0.0
  0
LWPOLYLINE
  5
14f
100
AcDbEntity
  8
0
 62
7
100
AcDbPolyline
 90
2
 70
0
 10
36.085900
 20
107.829600
 30
0.0
 10
36.301100
 20
107.851100
 30
0.0
  0
LWPOLYLINE
  5
150
100
AcDbEntity
  8
0
 62
7
100
AcDbPolyline
 90
2
 70
0
 10
35.888800
 20
107.768500
 30
0.0
 10
36.085900
 20
107.829600
 30
0.0
  0
LWPOLYLINE
  5
151
100
AcDbEntity
  8
0
 62
7
100
AcDbPolyline
 90
2
 70
0
 10
126.250700
 20
107.854400
 30
0.0
 10
36.301100
 20
107.851100
 30
0.0
  0
LWPOLYLINE
  5
152
100
AcDbEntity
  8
0
 62
7
100
AcDbPolyline
 90
2
 70
0
 10
35.191700
 20
32.924400
 30
0.0
 10
35.247000
 20
106.797000
 30
0.0
  0
LWPOLYLINE
  5
153
100
AcDbEntity
  8
0
 62
7
100
AcDbPolyline
 90
2
 70
0
 10
35.966400
 20
27.145900
 30
0.0
 10
36.525200
 20
25.875900
 30
0.0
  0
LWPOLYLINE
  5
154
100
AcDbEntity
  8
0
 62
7
100
AcDbPolyline
 90
2
 70
0
 10
35.699700
 20
28.161900
 30
0.0
 10
35.966400
 20
27.145900
 30
0.0
  0
LWPOLYLINE
  5
155
100
AcDbEntity
  8
0
 62
7
100
AcDbPolyline
 90
2
 70
0
 10
35.191700
 20
32.924400
 30
0.0
 10
35.255200
 20
31.717900
 30
0.0
  0
LWPOLYLINE
  5
156
100
AcDbEntity
  8
0
 62
7
100
AcDbPolyline
 90
2
 70
0
 10
51.973600
 20
0.184200
 30
0.0
 10
52.141500
 20
0.269700
 30
0.0
  0
LWPOLYLINE
  5
157
100
AcDbEntity
  8
0
 62
7
100
AcDbPolyline
 90
2
 70
0
 10
51.814900
 20
0.137000
 30
0.0
 10
51.973600
 20
0.184200
 30
0.0
  0
LWPOLYLINE
  5
158
100
AcDbEntity
  8
0
 62
7
100
AcDbPolyline
 90
2
 70
0
 10
51.666000
 20
0.127500
 30
0.0
 10
51.814900
 20
0.137000
 30
0.0
  0
LWPOLYLINE
  5
159
100
AcDbEntity
  8
0
 62
7
100
AcDbPolyline
 90
2
 70
0
 10
51.527200
 20
0.155000
 30
0.0
 10
51.666000
 20
0.127500
 30
0.0
  0
LWPOLYLINE
  5
15a
100
AcDbEntity
  8
0
 62
7
100
AcDbPolyline
 90
2
 70
0
 10
51.399000
 20
0.218900
 30
0.0
 10
51.527200
 20
0.155000
 30
0.0
  0
LWPOLYLINE
  5
15b
100
AcDbEntity
  8
0
 62
7
100
AcDbPolyline
 90
2
 70
0
 10
51.282000
 20
0.318600
 30
0.0
 10
51.399000
 20
0.218900
 30
0.0
  0
LWPOLYLINE
  5
15c
100
AcDbEntity
  8
0
 62
7
100
AcDbPolyline
 90
2
 70
0
 10
51.176500
 20
0.453300
 30
0.0
 10
51.282000
 20
0.318600
 30
0.0
  0
LWPOLYLINE
  5
15d
100
AcDbEntity
  8
0
 62
7
100
AcDbPolyline
 90
2
 70
0
 10
36.525200
 20
25.875900
 30
0.0
 10
51.176500
 20
0.453300
 30
0.0
  0
LWPOLYLINE
  5
15e
100
AcDbEntity
  8
0
 62
7
100
AcDbPolyline
 90
2
 70
0
 10
35.445700
 20
29.431900
 30
0.0
 10
35.699700
 20
28.161900
 30
0.0
  0
LWPOLYLINE
  5
15f
100
AcDbEntity
  8
0
 62
7
100
AcDbPolyline
 90
2
 70
0
 10
64.866500
 20
7.636200
 30
0.0
 10
125.239800
 20
7.636200
 30
0.0
  0
LWPOLYLINE
  5
160
100
AcDbEntity
  8
0
 62
7
100
AcDbPolyline
 90
2
 70
0
 10
126.740900
 20
18.845200
 30
0.0
 10
126.739800
 20
9.113800
 30
0.0
  0
LWPOLYLINE
  5
161
100
AcDbEntity
  8
0
 62
7
100
AcDbPolyline
 90
2
 70
0
 10
125.542300
 20
7.666600
 30
0.0
 10
125.239800
 20
7.636200
 30
0.0
  0
LWPOLYLINE
  5
162
100
AcDbEntity
  8
0
 62
7
100
AcDbPolyline
 90
2
 70
0
 10
125.823900
 20
7.754000
 30
0.0
 10
125.542300
 20
7.666600
 30
0.0
  0
LWPOLYLINE
  5
163
100
AcDbEntity
  8
0
 62
7
100
AcDbPolyline
 90
2
 70
0
 10
173.680100
 20
100.031200
 30
0.0
 10
173.058600
 20
100.575000
 30
0.0
  0
LWPOLYLINE
  5
164
100
AcDbEntity
  8
0
 62
7
100
AcDbPolyline
 90
2
 70
0
 10
173.047000
 20
22.375700
 30
0.0
 10
172.727600
 20
22.347900
 30
0.0
  0
LWPOLYLINE
  5
165
100
AcDbEntity
  8
0
 62
7
100
AcDbPolyline
 90
2
 70
0
 10
173.328700
 20
22.463100
 30
0.0
 10
173.047000
 20
22.375700
 30
0.0
  0
LWPOLYLINE
  5
166
100
AcDbEntity
  8
0
 62
7
100
AcDbPolyline
 90
2
 70
0
 10
173.583500
 20
22.601300
 30
0.0
 10
173.328700
 20
22.463100
 30
0.0
  0
LWPOLYLINE
  5
167
100
AcDbEntity
  8
0
 62
7
100
AcDbPolyline
 90
2
 70
0
 10
173.805400
 20
22.784400
 30
0.0
 10
173.583500
 20
22.601300
 30
0.0
  0
LWPOLYLINE
  5
168
100
AcDbEntity
  8
0
 62
7
100
AcDbPolyline
 90
2
 70
0
 10
173.988500
 20
23.006300
 30
0.0
 10
173.805400
 20
22.784400
 30
0.0
  0
LWPOLYLINE
  5
169
100
AcDbEntity
  8
0
 62
7
100
AcDbPolyline
 90
2
 70
0
 10
174.126700
 20
23.261100
 30
0.0
 10
173.988500
 20
23.006300
 30
0.0
  0
LWPOLYLINE
  5
16a
100
AcDbEntity
  8
0
 62
7
100
AcDbPolyline
 90
2
 70
0
 10
174.214100
 20
23.542800
 30
0.0
 10
174.126700
 20
23.261100
 30
0.0
  0
LWPOLYLINE
  5
16b
100
AcDbEntity
  8
0
 62
7
100
AcDbPolyline
 90
2
 70
0
 10
174.251600
 20
23.856600
 30
0.0
 10
174.214100
 20
23.542800
 30
0.0
  0
LWPOLYLINE
  5
16c
100
AcDbEntity
  8
0
 62
7
100
AcDbPolyline
 90
2
 70
0
 10
75.846700
 20
100.441400
 30
0.0
 10
62.046700
 20
100.441400
 30
0.0
  0
LWPOLYLINE
  5
16d
100
AcDbEntity
  8
0
 62
7
100
AcDbPolyline
 90
2
 70
0
 10
75.846700
 20
86.641400
 30
0.0
 10
75.846700
 20
100.441400
 30
0.0
  0
LWPOLYLINE
  5
16e
100
AcDbEntity
  8
0
 62
7
100
AcDbPolyline
 90
3
 70
0
 10
75.846700
 20
86.641400
 30
0.0
 10
62.046700
 20
86.641400
 30
0.0
 10
62.046700
 20
100.441400
 30
0.0
  0
LWPOLYLINE
  5
16f
100
AcDbEntity
  8
0
 62
7
100
AcDbPolyline
 90
2
 70
0
 10
152.046700
 20
40.891400
 30
0.0
 10
138.246700
 20
40.891400
 30
0.0
  0
LWPOLYLINE
  5
170
100
AcDbEntity
  8
0
 62
7
100
AcDbPolyline
 90
2
 70
0
 10
152.046700
 20
27.091400
 30
0.0
 10
152.046700
 20
40.891400
 30
0.0
  0
LWPOLYLINE
  5
171
100
AcDbEntity
  8
0
 62
7
100
AcDbPolyline
 90
3
 70
0
 10
152.046700
 20
27.091400
 30
0.0
 10
138.246700
 20
27.091400
 30
0.0
 10
138.246700
 20
40.891400
 30
0.0
  0
LWPOLYLINE
  5
172
100
AcDbEntity
  8
0
 62
7
100
AcDbPolyline
 90
2
 70
0
 10
123.396700
 20
26.641400
 30
0.0
 10
109.596700
 20
26.641400
 30
0.0
  0
LWPOLYLINE
  5
173
100
AcDbEntity
  8
0
 62
7
100
AcDbPolyline
 90
2
 70
0
 10
123.396700
 20
12.841400
 30
0.0
 10
123.396700
 20
26.641400
 30
0.0
  0
LWPOLYLINE
  5
174
100
AcDbEntity
  8
0
 62
7
100
AcDbPolyline
 90
3
 70
0
 10
123.396700
 20
12.841400
 30
0.0
 10
109.596700
 20
12.841400
 30
0.0
 10
109.596700
 20
26.641400
 30
0.0
  0
LWPOLYLINE
  5
175
100
AcDbEntity
  8
0
 62
7
100
AcDbPolyline
 90
2
 70
0
 10
104.344400
 20
25.613100
 30
0.0
 10
90.544400
 20
25.613100
 30
0.0
  0
LWPOLYLINE
  5
176
100
AcDbEntity
  8
0
 62
7
100
AcDbPolyline
 90
2
 70
0
 10
104.344400
 20
11.813100
 30
0.0
 10
104.344400
 20
25.613100
 30
0.0
  0
LWPOLYLINE
  5
177
100
AcDbEntity
  8
0
 62
7
100
AcDbPolyline
 90
3
 70
0
 10
104.344400
 20
11.813100
 30
0.0
 10
90.544400
 20
11.813100
 30
0.0
 10
90.544400
 20
25.613100
 30
0.0
  0
LWPOLYLINE
  5
178
100
AcDbEntity
  8
0
 62
7
100
AcDbPolyline
 90
2
 70
0
 10
85.296700
 20
24.241400
 30
0.0
 10
71.496700
 20
24.241400
 30
0.0
  0
LWPOLYLINE
  5
179
100
AcDbEntity
  8
0
 62
7
100
AcDbPolyline
 90
2
 70
0
 10
85.296700
 20
10.441400
 30
0.0
 10
85.296700
 20
24.241400
 30
0.0
  0
LWPOLYLINE
  5
17a
100
AcDbEntity
  8
0
 62
7
100
AcDbPolyline
 90
3
 70
0
 10
85.296700
 20
10.441400
 30
0.0
 10
71.496700
 20
10.441400
 30
0.0
 10
71.496700
 20
24.241400
 30
0.0
  0
LWPOLYLINE
  5
17b
100
AcDbEntity
  8
0
 62
7
100
AcDbPolyline
 90
2
 70
0
 10
62.143300
 20
14.968400
 30
0.0
 10
55.243300
 20
26.919500
 30
0.0
  0
LWPOLYLINE
  5
17c
100
AcDbEntity
  8
0
 62
7
100
AcDbPolyline
 90
2
 70
0
 10
50.192100
 20
8.068400
 30
0.0
 10
62.143300
 20
14.968400
 30
0.0
  0
LWPOLYLINE
  5
17d
100
AcDbEntity
  8
0
 62
7
100
AcDbPolyline
 90
3
 70
0
 10
50.192100
 20
8.068400
 30
0.0
 10
43.292100
 20
20.019500
 30
0.0
 10
55.243300
 20
26.919500
 30
0.0
  0
LWPOLYLINE
  5
17e
100
AcDbEntity
  8
0
 62
7
100
AcDbPolyline
 90
2
 70
0
 10
51.921500
 20
52.156100
 30
0.0
 10
38.121500
 20
52.156100
 30
0.0
  0
LWPOLYLINE
  5
17f
100
AcDbEntity
  8
0
 62
7
100
AcDbPolyline
 90
2
 70
0
 10
51.921500
 20
38.356100
 30
0.0
 10
51.921500
 20
52.156100
 30
0.0
  0
LWPOLYLINE
  5
180
100
AcDbEntity
  8
0
 62
7
100
AcDbPolyline
 90
3
 70
0
 10
51.921500
 20
38.356100
 30
0.0
 10
38.121500
 20
38.356100
 30
0.0
 10
38.121500
 20
52.156100
 30
0.0
  0
LWPOLYLINE
  5
181
100
AcDbEntity
  8
0
 62
7
100
AcDbPolyline
 90
2
 70
0
 10
171.096700
 20
39.391400
 30
0.0
 10
157.296700
 20
39.391400
 30
0.0
  0
LWPOLYLINE
  5
182
100
AcDbEntity
  8
0
 62
7
100
AcDbPolyline
 90
2
 70
0
 10
171.096700
 20
25.591400
 30
0.0
 10
171.096700
 20
39.391400
 30
0.0
  0
LWPOLYLINE
  5
183
100
AcDbEntity
  8
0
 62
7
100
AcDbPolyline
 90
3
 70
0
 10
171.096700
 20
25.591400
 30
0.0
 10
157.296700
 20
25.591400
 30
0.0
 10
157.296700
 20
39.391400
 30
0.0
  0
LWPOLYLINE
  5
184
100
AcDbEntity
  8
0
 62
7
100
AcDbPolyline
 90
2
 70
0
 10
132.996700
 20
45.691400
 30
0.0
 10
119.196700
 20
45.691400
 30
0.0
  0
LWPOLYLINE
  5
185
100
AcDbEntity
  8
0
 62
7
100
AcDbPolyline
 90
2
 70
0
 10
132.996700
 20
31.891400
 30
0.0
 10
132.996700
 20
45.691400
 30
0.0
  0
LWPOLYLINE
  5
186
100
AcDbEntity
  8
0
 62
7
100
AcDbPolyline
 90
3
 70
0
 10
132.996700
 20
31.891400
 30
0.0
 10
119.196700
 20
31.891400
 30
0.0
 10
119.196700
 20
45.691400
 30
0.0
  0
LWPOLYLINE
  5
187
100
AcDbEntity
  8
0
 62
7
100
AcDbPolyline
 90
2
 70
0
 10
113.946700
 20
47.081400
 30
0.0
 10
100.146700
 20
47.081400
 30
0.0
  0
LWPOLYLINE
  5
188
100
AcDbEntity
  8
0
 62
7
100
AcDbPolyline
 90
2
 70
0
 10
113.946700
 20
33.281400
 30
0.0
 10
113.946700
 20
47.081400
 30
0.0
  0
LWPOLYLINE
  5
189
100
AcDbEntity
  8
0
 62
7
100
AcDbPolyline
 90
3
 70
0
 10
113.946700
 20
33.281400
 30
0.0
 10
100.146700
 20
33.281400
 30
0.0
 10
100.146700
 20
47.081400
 30
0.0
  0
LWPOLYLINE
  5
18a
100
AcDbEntity
  8
0
 62
7
100
AcDbPolyline
 90
2
 70
0
 10
94.896700
 20
45.691400
 30
0.0
 10
81.096700
 20
45.691400
 30
0.0
  0
LWPOLYLINE
  5
18b
100
AcDbEntity
  8
0
 62
7
100
AcDbPolyline
 90
2
 70
0
 10
94.896700
 20
31.891400
 30
0.0
 10
94.896700
 20
45.691400
 30
0.0
  0
LWPOLYLINE
  5
18c
100
AcDbEntity
  8
0
 62
7
100
AcDbPolyline
 90
3
 70
0
 10
94.896700
 20
31.891400
 30
0.0
 10
81.096700
 20
31.891400
 30
0.0
 10
81.096700
 20
45.691400
 30
0.0
  0
LWPOLYLINE
  5
18d
100
AcDbEntity
  8
0
 62
7
100
AcDbPolyline
 90
2
 70
0
 10
75.846700
 20
43.291400
 30
0.0
 10
62.046700
 20
43.291400
 30
0.0
  0
LWPOLYLINE
  5
18e
100
AcDbEntity
  8
0
 62
7
100
AcDbPolyline
 90
2
 70
0
 10
75.846700
 20
29.491400
 30
0.0
 10
75.846700
 20
43.291400
 30
0.0
  0
LWPOLYLINE
  5
18f
100
AcDbEntity
  8
0
 62
7
100
AcDbPolyline
 90
3
 70
0
 10
75.846700
 20
29.491400
 30
0.0
 10
62.046700
 20
29.491400
 30
0.0
 10
62.046700
 20
43.291400
 30
0.0
  0
LWPOLYLINE
  5
190
100
AcDbEntity
  8
0
 62
7
100
AcDbPolyline
 90
2
 70
0
 10
171.096700
 20
58.441400
 30
0.0
 10
157.296700
 20
58.441400
 30
0.0
  0
LWPOLYLINE
  5
191
100
AcDbEntity
  8
0
 62
7
100
AcDbPolyline
 90
2
 70
0
 10
171.096700
 20
44.641400
 30
0.0
 10
171.096700
 20
58.441400
 30
0.0
  0
LWPOLYLINE
  5
192
100
AcDbEntity
  8
0
 62
7
100
AcDbPolyline
 90
3
 70
0
 10
171.096700
 20
44.641400
 30
0.0
 10
157.296700
 20
44.641400
 30
0.0
 10
157.296700
 20
58.441400
 30
0.0
  0
LWPOLYLINE
  5
193
100
AcDbEntity
  8
0
 62
7
100
AcDbPolyline
 90
2
 70
0
 10
152.046700
 20
59.941400
 30
0.0
 10
138.246700
 20
59.941400
 30
0.0
  0
LWPOLYLINE
  5
194
100
AcDbEntity
  8
0
 62
7
100
AcDbPolyline
 90
2
 70
0
 10
152.046700
 20
46.141400
 30
0.0
 10
152.046700
 20
59.941400
 30
0.0
  0
LWPOLYLINE
  5
195
100
AcDbEntity
  8
0
 62
7
100
AcDbPolyline
 90
3
 70
0
 10
152.046700
 20
46.141400
 30
0.0
 10
138.246700
 20
46.141400
 30
0.0
 10
138.246700
 20
59.941400
 30
0.0
  0
LWPOLYLINE
  5
196
100
AcDbEntity
  8
0
 62
7
100
AcDbPolyline
 90
2
 70
0
 10
132.996700
 20
64.741400
 30
0.0
 10
119.196700
 20
64.741400
 30
0.0
  0
LWPOLYLINE
  5
197
100
AcDbEntity
  8
0
 62
7
100
AcDbPolyline
 90
2
 70
0
 10
132.996700
 20
50.941400
 30
0.0
 10
132.996700
 20
64.741400
 30
0.0
  0
LWPOLYLINE
  5
198
100
AcDbEntity
  8
0
 62
7
100
AcDbPolyline
 90
3
 70
0
 10
132.996700
 20
50.941400
 30
0.0
 10
119.196700
 20
50.941400
 30
0.0
 10
119.196700
 20
64.741400
 30
0.0
  0
LWPOLYLINE
  5
199
100
AcDbEntity
  8
0
 62
7
100
AcDbPolyline
 90
2
 70
0
 10
113.946700
 20
66.131400
 30
0.0
 10
100.146700
 20
66.131400
 30
0.0
  0
LWPOLYLINE
  5
19a
100
AcDbEntity
  8
0
 62
7
100
AcDbPolyline
 90
2
 70
0
 10
113.946700
 20
52.331400
 30
0.0
 10
113.946700
 20
66.131400
 30
0.0
  0
LWPOLYLINE
  5
19b
100
AcDbEntity
  8
0
 62
7
100
AcDbPolyline
 90
3
 70
0
 10
113.946700
 20
52.331400
 30
0.0
 10
100.146700
 20
52.331400
 30
0.0
 10
100.146700
 20
66.131400
 30
0.0
  0
LWPOLYLINE
  5
19c
100
AcDbEntity
  8
0
 62
7
100
AcDbPolyline
 90
2
 70
0
 10
94.896700
 20
64.741400
 30
0.0
 10
81.096700
 20
64.741400
 30
0.0
  0
LWPOLYLINE
  5
19d
100
AcDbEntity
  8
0
 62
7
100
AcDbPolyline
 90
2
 70
0
 10
94.896700
 20
50.941400
 30
0.0
 10
94.896700
 20
64.741400
 30
0.0
  0
LWPOLYLINE
  5
19e
100
AcDbEntity
  8
0
 62
7
100
AcDbPolyline
 90
3
 70
0
 10
94.896700
 20
50.941400
 30
0.0
 10
81.096700
 20
50.941400
 30
0.0
 10
81.096700
 20
64.741400
 30
0.0
  0
LWPOLYLINE
  5
19f
100
AcDbEntity
  8
0
 62
7
100
AcDbPolyline
 90
2
 70
0
 10
75.846700
 20
62.341400
 30
0.0
 10
62.046700
 20
62.341400
 30
0.0
  0
LWPOLYLINE
  5
1a0
100
AcDbEntity
  8
0
 62
7
100
AcDbPolyline
 90
2
 70
0
 10
75.846700
 20
48.541400
 30
0.0
 10
75.846700
 20
62.341400
 30
0.0
  0
LWPOLYLINE
  5
1a1
100
AcDbEntity
  8
0
 62
7
100
AcDbPolyline
 90
3
 70
0
 10
75.846700
 20
48.541400
 30
0.0
 10
62.046700
 20
48.541400
 30
0.0
 10
62.046700
 20
62.341400
 30
0.0
  0
LWPOLYLINE
  5
1a2
100
AcDbEntity
  8
0
 62
7
100
AcDbPolyline
 90
2
 70
0
 10
171.096700
 20
77.491400
 30
0.0
 10
157.296700
 20
77.491400
 30
0.0
  0
LWPOLYLINE
  5
1a3
100
AcDbEntity
  8
0
 62
7
100
AcDbPolyline
 90
2
 70
0
 10
171.096700
 20
63.691400
 30
0.0
 10
171.096700
 20
77.491400
 30
0.0
  0
LWPOLYLINE
  5
1a4
100
AcDbEntity
  8
0
 62
7
100
AcDbPolyline
 90
3
 70
0
 10
171.096700
 20
63.691400
 30
0.0
 10
157.296700
 20
63.691400
 30
0.0
 10
157.296700
 20
77.491400
 30
0.0
  0
LWPOLYLINE
  5
1a5
100
AcDbEntity
  8
0
 62
7
100
AcDbPolyline
 90
2
 70
0
 10
152.046700
 20
78.991400
 30
0.0
 10
138.246700
 20
78.991400
 30
0.0
  0
LWPOLYLINE
  5
1a6
100
AcDbEntity
  8
0
 62
7
100
AcDbPolyline
 90
2
 70
0
 10
152.046700
 20
65.191400
 30
0.0
 10
152.046700
 20
78.991400
 30
0.0
  0
LWPOLYLINE
  5
1a7
100
AcDbEntity
  8
0
 62
7
100
AcDbPolyline
 90
3
 70
0
 10
152.046700
 20
65.191400
 30
0.0
 10
138.246700
 20
65.191400
 30
0.0
 10
138.246700
 20
78.991400
 30
0.0
  0
LWPOLYLINE
  5
1a8
100
AcDbEntity
  8
0
 62
7
100
AcDbPolyline
 90
2
 70
0
 10
132.996700
 20
83.791400
 30
0.0
 10
119.196700
 20
83.791400
 30
0.0
  0
LWPOLYLINE
  5
1a9
100
AcDbEntity
  8
0
 62
7
100
AcDbPolyline
 90
2
 70
0
 10
132.996700
 20
69.991400
 30
0.0
 10
132.996700
 20
83.791400
 30
0.0
  0
LWPOLYLINE
  5
1aa
100
AcDbEntity
  8
0
 62
7
100
AcDbPolyline
 90
3
 70
0
 10
132.996700
 20
69.991400
 30
0.0
 10
119.196700
 20
69.991400
 30
0.0
 10
119.196700
 20
83.791400
 30
0.0
  0
LWPOLYLINE
  5
1ab
100
AcDbEntity
  8
0
 62
7
100
AcDbPolyline
 90
2
 70
0
 10
113.946700
 20
85.181400
 30
0.0
 10
100.146700
 20
85.181400
 30
0.0
  0
LWPOLYLINE
  5
1ac
100
AcDbEntity
  8
0
 62
7
100
AcDbPolyline
 90
2
 70
0
 10
113.946700
 20
71.381400
 30
0.0
 10
113.946700
 20
85.181400
 30
0.0
  0
LWPOLYLINE
  5
1ad
100
AcDbEntity
  8
0
 62
7
100
AcDbPolyline
 90
3
 70
0
 10
113.946700
 20
71.381400
 30
0.0
 10
100.146700
 20
71.381400
 30
0.0
 10
100.146700
 20
85.181400
 30
0.0
  0
LWPOLYLINE
  5
1ae
100
AcDbEntity
  8
0
 62
7
100
AcDbPolyline
 90
2
 70
0
 10
94.896700
 20
83.791400
 30
0.0
 10
81.096700
 20
83.791400
 30
0.0
  0
LWPOLYLINE
  5
1af
100
AcDbEntity
  8
0
 62
7
100
AcDbPolyline
 90
2
 70
0
 10
94.896700
 20
69.991400
 30
0.0
 10
94.896700
 20
83.791400
 30
0.0
  0
LWPOLYLINE
  5
1b0
100
AcDbEntity
  8
0
 62
7
100
AcDbPolyline
 90
3
 70
0
 10
94.896700
 20
69.991400
 30
0.0
 10
81.096700
 20
69.991400
 30
0.0
 10
81.096700
 20
83.791400
 30
0.0
  0
LWPOLYLINE
  5
1b1
100
AcDbEntity
  8
0
 62
7
100
AcDbPolyline
 90
2
 70
0
 10
75.846700
 20
81.391400
 30
0.0
 10
62.046700
 20
81.391400
 30
0.0
  0
LWPOLYLINE
  5
1b2
100
AcDbEntity
  8
0
 62
7
100
AcDbPolyline
 90
2
 70
0
 10
75.846700
 20
67.591400
 30
0.0
 10
75.846700
 20
81.391400
 30
0.0
  0
LWPOLYLINE
  5
1b3
100
AcDbEntity
  8
0
 62
7
100
AcDbPolyline
 90
3
 70
0
 10
75.846700
 20
67.591400
 30
0.0
 10
62.046700
 20
67.591400
 30
0.0
 10
62.046700
 20
81.391400
 30
0.0
  0
LWPOLYLINE
  5
1b4
100
AcDbEntity
  8
0
 62
7
100
AcDbPolyline
 90
2
 70
0
 10
171.096700
 20
96.541400
 30
0.0
 10
157.296700
 20
96.541400
 30
0.0
  0
LWPOLYLINE
  5
1b5
100
AcDbEntity
  8
0
 62
7
100
AcDbPolyline
 90
2
 70
0
 10
171.096700
 20
82.741400
 30
0.0
 10
171.096700
 20
96.541400
 30
0.0
  0
LWPOLYLINE
  5
1b6
100
AcDbEntity
  8
0
 62
7
100
AcDbPolyline
 90
3
 70
0
 10
171.096700
 20
82.741400
 30
0.0
 10
157.296700
 20
82.741400
 30
0.0
 10
157.296700
 20
96.541400
 30
0.0
  0
LWPOLYLINE
  5
1b7
100
AcDbEntity
  8
0
 62
7
100
AcDbPolyline
 90
2
 70
0
 10
152.046700
 20
98.041400
 30
0.0
 10
138.246700
 20
98.041400
 30
0.0
  0
LWPOLYLINE
  5
1b8
100
AcDbEntity
  8
0
 62
7
100
AcDbPolyline
 90
2
 70
0
 10
152.046700
 20
84.241400
 30
0.0
 10
152.046700
 20
98.041400
 30
0.0
  0
LWPOLYLINE
  5
1b9
100
AcDbEntity
  8
0
 62
7
100
AcDbPolyline
 90
3
 70
0
 10
152.046700
 20
84.241400
 30
0.0
 10
138.246700
 20
84.241400
 30
0.0
 10
138.246700
 20
98.041400
 30
0.0
  0
LWPOLYLINE
  5
1ba
100
AcDbEntity
  8
0
 62
7
100
AcDbPolyline
 90
2
 70
0
 10
132.996700
 20
102.841400
 30
0.0
 10
119.196700
 20
102.841400
 30
0.0
  0
LWPOLYLINE
  5
1bb
100
AcDbEntity
  8
0
 62
7
100
AcDbPolyline
 90
2
 70
0
 10
132.996700
 20
89.041400
 30
0.0
 10
132.996700
 20
102.841400
 30
0.0
  0
LWPOLYLINE
  5
1bc
100
AcDbEntity
  8
0
 62
7
100
AcDbPolyline
 90
3
 70
0
 10
132.996700
 20
89.041400
 30
0.0
 10
119.196700
 20
89.041400
 30
0.0
 10
119.196700
 20
102.841400
 30
0.0
  0
LWPOLYLINE
  5
1bd
100
AcDbEntity
  8
0
 62
7
100
AcDbPolyline
 90
2
 70
0
 10
113.946700
 20
104.231400
 30
0.0
 10
100.146700
 20
104.231400
 30
0.0
  0
LWPOLYLINE
  5
1be
100
AcDbEntity
  8
0
 62
7
100
AcDbPolyline
 90
2
 70
0
 10
113.946700
 20
90.431400
 30
0.0
 10
113.946700
 20
104.231400
 30
0.0
  0
LWPOLYLINE
  5
1bf
100
AcDbEntity
  8
0
 62
7
100
AcDbPolyline
 90
3
 70
0
 10
113.946700
 20
90.431400
 30
0.0
 10
100.146700
 20
90.431400
 30
0.0
 10
100.146700
 20
104.231400
 30
0.0
  0
LWPOLYLINE
  5
1c0
100
AcDbEntity
  8
0
 62
7
100
AcDbPolyline
 90
2
 70
0
 10
94.896700
 20
102.841400
 30
0.0
 10
81.096700
 20
102.841400
 30
0.0
  0
LWPOLYLINE
  5
1c1
100
AcDbEntity
  8
0
 62
7
100
AcDbPolyline
 90
2
 70
0
 10
94.896700
 20
89.041400
 30
0.0
 10
94.896700
 20
102.841400
 30
0.0
  0
LWPOLYLINE
  5
1c2
100
AcDbEntity
  8
0
 62
7
100
AcDbPolyline
 90
3
 70
0
 10
94.896700
 20
89.041400
 30
0.0
 10
81.096700
 20
89.041400
 30
0.0
 10
81.096700
 20
102.841400
 30
0.0
  0
ENDSEC
  0
SECTION
  2
OBJECTS
  0
DICTIONARY
  5
C
330
0
100
AcDbDictionary
  3
ACAD_GROUP
350
D
  3
ACAD_MLINESTYLE
350
17
  0
DICTIONARY
  5
D
330
C
100
AcDbDictionary
  0
DICTIONARY
  5
1A
330
C
100
AcDbDictionary
  0
DICTIONARY
  5
17
330
C
100
AcDbDictionary
  3
STANDARD
350
18
  0
DICTIONARY
  5
19
330
C
100
AcDbDictionary
  0
ENDSEC
  0
EOF
