999
FreeCAD v1.0 39109 (Git)
  0
SECTION
  2
HEADER
  9
$ACADVER
  1
AC1014
  9
$ACADMAINTVER
 70
     9
  9
$DWGCODEPAGE
  3
ANSI_1252
  9
$TEXTSTYLE
  7
STANDARD
  9
$DIMSTYLE
  2
STANDARD
  9
$DIMTXSTY
  7
STANDARD
  9
$CMLSTYLE
  2
STANDARD
  9
$LUNITS
 70
2
  9
$INSUNITS
 70
4
  9
$PEXTMAX
 10
50
 20
50
 30
50
  9
$PEXTMIN
 10
0
 20
0
 30
0
  9
$HANDSEED
  5
FFFF
  0
ENDSEC
  0
SECTION
  2
CLASSES
  0
CLASS
  1
ACDBDICTIONARYWDFLT
  2
AcDbDictionaryWithDefault
  3
ObjectDBX Classes
 90
        0
280
     0
281
     0
  0
CLASS
  1
XRECORD
  2
AcDbXrecord
  3
ObjectDBX Classes
 90
        0
280
     0
281
     0
  0
CLASS
  1
LWPOLYLINE
  2
AcDbPolyline
  3
ObjectDBX Classes
 90
        0
280
     0
281
     1
  0
ENDSEC
  0
SECTION
  2
TABLES
  0
TABLE
  2
VPORT
  5
20
330
0
100
AcDbSymbolTable
 70
     1
  0
VPORT
  5
21
330
20
100
AcDbSymbolTableRecord
100
AcDbViewportTableRecord
  2
*ACTIVE
 70
     0
  0
ENDTAB
  0
TABLE
  2
LTYPE
  5
22
330
0
100
AcDbSymbolTable
 70
     1
  0
LTYPE
  5
23
330
21
100
AcDbSymbolTableRecord
100
AcDbLinetypeTableRecord
  2
BYBLOCK
 70
     0
  3

 72
    65
 73
     0
 40
0.0
  0
LTYPE
  5
24
330
21
100
AcDbSymbolTableRecord
100
AcDbLinetypeTableRecord
  2
BYLAYER
 70
     0
  3

 72
    65
 73
     0
 40
0.0
  0
LTYPE
  5
25
330
21
100
AcDbSymbolTableRecord
100
AcDbLinetypeTableRecord
  2
CONTINUOUS
 70
     0
  3
Solid line
 72
    65
 73
     0
 40
0.0
  0
ENDTAB
  0
TABLE
  2
LAYER
  5
ABF
330
0
100
AcDbSymbolTable
 70
3
  0
LAYER
  5
AC0
330
ABF
100
AcDbSymbolTableRecord
100
AcDbLayerTableRecord
  2
0
 70
   0
 62
   7
  6
CONTINUOUS
  0
LAYER
  5
AC1
330
ABF
100
AcDbSymbolTableRecord
100
AcDbLayerTableRecord
  2
none
 70
    0
 62
    7
  6
CONTINUOUS
  0
LAYER
  5
AC2
330
ABF
100
AcDbSymbolTableRecord
100
AcDbLayerTableRecord
  2
Sketch025
 70
    0
 62
    7
  6
CONTINUOUS
  0
ENDTAB
  0
TABLE
  2
STYLE
  5
70
330
0
100
AcDbSymbolTable
 70
     2
  0
STYLE
  5
71
330
70
100
AcDbSymbolTableRecord
100
AcDbTextStyleTableRecord
  2
STANDARD
 70
     0
 40
0.0
 41
1.0
 50
0.0
 71
     0
 42
2.5
  3
arial.ttf
  4

  0
STYLE
  5
72
330
70
100
AcDbSymbolTableRecord
100
AcDbTextStyleTableRecord
  2
ANNOTATIVE
 70
     0
 40
0.0
 41
1.0
 50
0.0
 71
     0
 42
2.5
  3
arial.ttf
  4

  0
ENDTAB
  0
TABLE
  2
VIEW
  5
73
330
0
100
AcDbSymbolTable
 70
     0
  0
ENDTAB
  0
TABLE
  2
UCS
  5
74
330
0
100
AcDbSymbolTable
 70
     0
  0
ENDTAB
  0
TABLE
  2
APPID
  5
75
330
0
100
AcDbSymbolTable
 70
     2
  0
APPID
  5
76
330
75
100
AcDbSymbolTableRecord
100
AcDbRegAppTableRecord
  2
ACAD
 70
     0
  0
APPID
  5
77
330
75
100
AcDbSymbolTableRecord
100
AcDbRegAppTableRecord
  2
ACADANNOTATIVE
 70
     0
  0
ENDTAB
  0
TABLE
  2
DIMSTYLE
  5
78
330
0
100
AcDbSymbolTable
 70
     2
  0
DIMSTYLE
105
79
330
78
100
AcDbSymbolTableRecord
100
AcDbDimStyleTableRecord
  2
STANDARD
 70
     0
  3

  4

  5

  6

  7

 40
0.0
 41
2.5
 42
0.625
 43
3.75
 44
1.25
 45
0.0
 46
0.0
 47
0.0
 48
0.0
140
2.5
141
2.5
142
0.0
143
0.03937007874016
144
1.0
145
0.0
146
1.0
147
0.625
 71
     0
 72
     0
 73
     0
 74
     0
 75
     0
 76
     0
 77
     1
 78
     8
170
     0
171
     3
172
     1
173
     0
174
     0
175
     0
176
     0
177
     0
178
     0
270
     2
271
     2
272
     2
273
     2
274
     3
340
71
275
     0
280
     0
281
     0
282
     0
283
     0
284
     8
285
     0
286
     0
287
     3
288
     0
  0
ENDTAB
  0
TABLE
  2
BLOCK_RECORD
  5
A01
330
0
100
AcDbSymbolTable
  70
5
  0
BLOCK_RECORD
  5
A02
330
A01
100
AcDbSymbolTableRecord
100
AcDbBlockTableRecord
  2
*MODEL_SPACE
  0
BLOCK_RECORD
  5
A03
330
A01
100
AcDbSymbolTableRecord
100
AcDbBlockTableRecord
  2
*PAPER_SPACE
  0
ENDTAB
  0
ENDSEC
  0
SECTION
  2
BLOCKS
  0
BLOCK
  5
A04
330
A02
100
AcDbEntity
  8
0
100
AcDbBlockBegin
  2
*MODEL_SPACE
 70
   0
 10
0
 20
0
 30
0
  3
*MODEL_SPACE
  1
 
  0
ENDBLK
  5
A05
330
A02
100
AcDbEntity
  8
0
100
AcDbBlockEnd
  0
BLOCK
  5
A06
330
A03
100
AcDbEntity
 67
1
  8
0
100
AcDbBlockBegin
  2
*PAPER_SPACE
 70
   0
 10
0
 20
0
 30
0
  3
*PAPER_SPACE
  1
 
  0
ENDBLK
  5
A07
330
A03
100
AcDbEntity
 67
    1
  8
0
100
AcDbBlockEnd
  0
ENDSEC
  0
SECTION
  2
ENTITIES
  0
LINE
  5
A08
330
A02
100
AcDbEntity
  8
Sketch025
100
AcDbLine
 10
62.046700000
 20
100.441400000
 30
0.000000000
 11
62.046700000
 21
86.641400000
 31
0.000000000
  0
LINE
  5
A09
330
A02
100
AcDbEntity
  8
Sketch025
100
AcDbLine
 10
62.046700000
 20
86.641400000
 30
0.000000000
 11
75.846700000
 21
86.641400000
 31
0.000000000
  0
LINE
  5
A0A
330
A02
100
AcDbEntity
  8
Sketch025
100
AcDbLine
 10
75.846700000
 20
86.641400000
 30
0.000000000
 11
75.846700000
 21
100.441400000
 31
0.000000000
  0
LINE
  5
A0B
330
A02
100
AcDbEntity
  8
Sketch025
100
AcDbLine
 10
75.846700000
 20
100.441400000
 30
0.000000000
 11
62.046700000
 21
100.441400000
 31
0.000000000
  0
LINE
  5
A0C
330
A02
100
AcDbEntity
  8
Sketch025
100
AcDbLine
 10
81.096700000
 20
102.841400000
 30
0.000000000
 11
81.096700000
 21
89.041400000
 31
0.000000000
  0
LINE
  5
A0D
330
A02
100
AcDbEntity
  8
Sketch025
100
AcDbLine
 10
81.096700000
 20
89.041400000
 30
0.000000000
 11
94.896700000
 21
89.041400000
 31
0.000000000
  0
LINE
  5
A0E
330
A02
100
AcDbEntity
  8
Sketch025
100
AcDbLine
 10
94.896700000
 20
89.041400000
 30
0.000000000
 11
94.896700000
 21
102.841400000
 31
0.000000000
  0
LINE
  5
A0F
330
A02
100
AcDbEntity
  8
Sketch025
100
AcDbLine
 10
94.896700000
 20
102.841400000
 30
0.000000000
 11
81.096700000
 21
102.841400000
 31
0.000000000
  0
LINE
  5
A10
330
A02
100
AcDbEntity
  8
Sketch025
100
AcDbLine
 10
100.146700000
 20
104.231400000
 30
0.000000000
 11
100.146700000
 21
90.431400000
 31
0.000000000
  0
LINE
  5
A11
330
A02
100
AcDbEntity
  8
Sketch025
100
AcDbLine
 10
100.146700000
 20
90.431400000
 30
0.000000000
 11
113.946700000
 21
90.431400000
 31
0.000000000
  0
LINE
  5
A12
330
A02
100
AcDbEntity
  8
Sketch025
100
AcDbLine
 10
113.946700000
 20
90.431400000
 30
0.000000000
 11
113.946700000
 21
104.231400000
 31
0.000000000
  0
LINE
  5
A13
330
A02
100
AcDbEntity
  8
Sketch025
100
AcDbLine
 10
113.946700000
 20
104.231400000
 30
0.000000000
 11
100.146700000
 21
104.231400000
 31
0.000000000
  0
LINE
  5
A14
330
A02
100
AcDbEntity
  8
Sketch025
100
AcDbLine
 10
119.196700000
 20
102.841400000
 30
0.000000000
 11
119.196700000
 21
89.041400000
 31
0.000000000
  0
LINE
  5
A15
330
A02
100
AcDbEntity
  8
Sketch025
100
AcDbLine
 10
119.196700000
 20
89.041400000
 30
0.000000000
 11
132.996700000
 21
89.041400000
 31
0.000000000
  0
LINE
  5
A16
330
A02
100
AcDbEntity
  8
Sketch025
100
AcDbLine
 10
132.996700000
 20
89.041400000
 30
0.000000000
 11
132.996700000
 21
102.841400000
 31
0.000000000
  0
LINE
  5
A17
330
A02
100
AcDbEntity
  8
Sketch025
100
AcDbLine
 10
132.996700000
 20
102.841400000
 30
0.000000000
 11
119.196700000
 21
102.841400000
 31
0.000000000
  0
LINE
  5
A18
330
A02
100
AcDbEntity
  8
Sketch025
100
AcDbLine
 10
138.246700000
 20
98.041400000
 30
0.000000000
 11
138.246700000
 21
84.241400000
 31
0.000000000
  0
LINE
  5
A19
330
A02
100
AcDbEntity
  8
Sketch025
100
AcDbLine
 10
138.246700000
 20
84.241400000
 30
0.000000000
 11
152.046700000
 21
84.241400000
 31
0.000000000
  0
LINE
  5
A1A
330
A02
100
AcDbEntity
  8
Sketch025
100
AcDbLine
 10
152.046700000
 20
84.241400000
 30
0.000000000
 11
152.046700000
 21
98.041400000
 31
0.000000000
  0
LINE
  5
A1B
330
A02
100
AcDbEntity
  8
Sketch025
100
AcDbLine
 10
152.046700000
 20
98.041400000
 30
0.000000000
 11
138.246700000
 21
98.041400000
 31
0.000000000
  0
LINE
  5
A1C
330
A02
100
AcDbEntity
  8
Sketch025
100
AcDbLine
 10
157.296700000
 20
96.541400000
 30
0.000000000
 11
157.296700000
 21
82.741400000
 31
0.000000000
  0
LINE
  5
A1D
330
A02
100
AcDbEntity
  8
Sketch025
100
AcDbLine
 10
157.296700000
 20
82.741400000
 30
0.000000000
 11
171.096700000
 21
82.741400000
 31
0.000000000
  0
LINE
  5
A1E
330
A02
100
AcDbEntity
  8
Sketch025
100
AcDbLine
 10
171.096700000
 20
82.741400000
 30
0.000000000
 11
171.096700000
 21
96.541400000
 31
0.000000000
  0
LINE
  5
A1F
330
A02
100
AcDbEntity
  8
Sketch025
100
AcDbLine
 10
171.096700000
 20
96.541400000
 30
0.000000000
 11
157.296700000
 21
96.541400000
 31
0.000000000
  0
LINE
  5
A20
330
A02
100
AcDbEntity
  8
Sketch025
100
AcDbLine
 10
157.296700000
 20
77.491400000
 30
0.000000000
 11
157.296700000
 21
63.691400000
 31
0.000000000
  0
LINE
  5
A21
330
A02
100
AcDbEntity
  8
Sketch025
100
AcDbLine
 10
157.296700000
 20
63.691400000
 30
0.000000000
 11
171.096700000
 21
63.691400000
 31
0.000000000
  0
LINE
  5
A22
330
A02
100
AcDbEntity
  8
Sketch025
100
AcDbLine
 10
171.096700000
 20
63.691400000
 30
0.000000000
 11
171.096700000
 21
77.491400000
 31
0.000000000
  0
LINE
  5
A23
330
A02
100
AcDbEntity
  8
Sketch025
100
AcDbLine
 10
171.096700000
 20
77.491400000
 30
0.000000000
 11
157.296700000
 21
77.491400000
 31
0.000000000
  0
LINE
  5
A24
330
A02
100
AcDbEntity
  8
Sketch025
100
AcDbLine
 10
138.246700000
 20
78.991400000
 30
0.000000000
 11
138.246700000
 21
65.191400000
 31
0.000000000
  0
LINE
  5
A25
330
A02
100
AcDbEntity
  8
Sketch025
100
AcDbLine
 10
138.246700000
 20
65.191400000
 30
0.000000000
 11
152.046700000
 21
65.191400000
 31
0.000000000
  0
LINE
  5
A26
330
A02
100
AcDbEntity
  8
Sketch025
100
AcDbLine
 10
152.046700000
 20
65.191400000
 30
0.000000000
 11
152.046700000
 21
78.991400000
 31
0.000000000
  0
LINE
  5
A27
330
A02
100
AcDbEntity
  8
Sketch025
100
AcDbLine
 10
152.046700000
 20
78.991400000
 30
0.000000000
 11
138.246700000
 21
78.991400000
 31
0.000000000
  0
LINE
  5
A28
330
A02
100
AcDbEntity
  8
Sketch025
100
AcDbLine
 10
119.196700000
 20
83.791400000
 30
0.000000000
 11
119.196700000
 21
69.991400000
 31
0.000000000
  0
LINE
  5
A29
330
A02
100
AcDbEntity
  8
Sketch025
100
AcDbLine
 10
119.196700000
 20
69.991400000
 30
0.000000000
 11
132.996700000
 21
69.991400000
 31
0.000000000
  0
LINE
  5
A2A
330
A02
100
AcDbEntity
  8
Sketch025
100
AcDbLine
 10
132.996700000
 20
69.991400000
 30
0.000000000
 11
132.996700000
 21
83.791400000
 31
0.000000000
  0
LINE
  5
A2B
330
A02
100
AcDbEntity
  8
Sketch025
100
AcDbLine
 10
132.996700000
 20
83.791400000
 30
0.000000000
 11
119.196700000
 21
83.791400000
 31
0.000000000
  0
LINE
  5
A2C
330
A02
100
AcDbEntity
  8
Sketch025
100
AcDbLine
 10
100.146700000
 20
85.181400000
 30
0.000000000
 11
100.146700000
 21
71.381400000
 31
0.000000000
  0
LINE
  5
A2D
330
A02
100
AcDbEntity
  8
Sketch025
100
AcDbLine
 10
100.146700000
 20
71.381400000
 30
0.000000000
 11
113.946700000
 21
71.381400000
 31
0.000000000
  0
LINE
  5
A2E
330
A02
100
AcDbEntity
  8
Sketch025
100
AcDbLine
 10
113.946700000
 20
71.381400000
 30
0.000000000
 11
113.946700000
 21
85.181400000
 31
0.000000000
  0
LINE
  5
A2F
330
A02
100
AcDbEntity
  8
Sketch025
100
AcDbLine
 10
113.946700000
 20
85.181400000
 30
0.000000000
 11
100.146700000
 21
85.181400000
 31
0.000000000
  0
LINE
  5
A30
330
A02
100
AcDbEntity
  8
Sketch025
100
AcDbLine
 10
81.096700000
 20
83.791400000
 30
0.000000000
 11
81.096700000
 21
69.991400000
 31
0.000000000
  0
LINE
  5
A31
330
A02
100
AcDbEntity
  8
Sketch025
100
AcDbLine
 10
81.096700000
 20
69.991400000
 30
0.000000000
 11
94.896700000
 21
69.991400000
 31
0.000000000
  0
LINE
  5
A32
330
A02
100
AcDbEntity
  8
Sketch025
100
AcDbLine
 10
94.896700000
 20
69.991400000
 30
0.000000000
 11
94.896700000
 21
83.791400000
 31
0.000000000
  0
LINE
  5
A33
330
A02
100
AcDbEntity
  8
Sketch025
100
AcDbLine
 10
94.896700000
 20
83.791400000
 30
0.000000000
 11
81.096700000
 21
83.791400000
 31
0.000000000
  0
LINE
  5
A34
330
A02
100
AcDbEntity
  8
Sketch025
100
AcDbLine
 10
62.046700000
 20
81.391400000
 30
0.000000000
 11
62.046700000
 21
67.591400000
 31
0.000000000
  0
LINE
  5
A35
330
A02
100
AcDbEntity
  8
Sketch025
100
AcDbLine
 10
62.046700000
 20
67.591400000
 30
0.000000000
 11
75.846700000
 21
67.591400000
 31
0.000000000
  0
LINE
  5
A36
330
A02
100
AcDbEntity
  8
Sketch025
100
AcDbLine
 10
75.846700000
 20
67.591400000
 30
0.000000000
 11
75.846700000
 21
81.391400000
 31
0.000000000
  0
LINE
  5
A37
330
A02
100
AcDbEntity
  8
Sketch025
100
AcDbLine
 10
75.846700000
 20
81.391400000
 30
0.000000000
 11
62.046700000
 21
81.391400000
 31
0.000000000
  0
LINE
  5
A38
330
A02
100
AcDbEntity
  8
Sketch025
100
AcDbLine
 10
62.046700000
 20
62.341400000
 30
0.000000000
 11
62.046700000
 21
48.541400000
 31
0.000000000
  0
LINE
  5
A39
330
A02
100
AcDbEntity
  8
Sketch025
100
AcDbLine
 10
62.046700000
 20
48.541400000
 30
0.000000000
 11
75.846700000
 21
48.541400000
 31
0.000000000
  0
LINE
  5
A3A
330
A02
100
AcDbEntity
  8
Sketch025
100
AcDbLine
 10
75.846700000
 20
48.541400000
 30
0.000000000
 11
75.846700000
 21
62.341400000
 31
0.000000000
  0
LINE
  5
A3B
330
A02
100
AcDbEntity
  8
Sketch025
100
AcDbLine
 10
75.846700000
 20
62.341400000
 30
0.000000000
 11
62.046700000
 21
62.341400000
 31
0.000000000
  0
LINE
  5
A3C
330
A02
100
AcDbEntity
  8
Sketch025
100
AcDbLine
 10
81.096700000
 20
64.741400000
 30
0.000000000
 11
81.096700000
 21
50.941400000
 31
0.000000000
  0
LINE
  5
A3D
330
A02
100
AcDbEntity
  8
Sketch025
100
AcDbLine
 10
81.096700000
 20
50.941400000
 30
0.000000000
 11
94.896700000
 21
50.941400000
 31
0.000000000
  0
LINE
  5
A3E
330
A02
100
AcDbEntity
  8
Sketch025
100
AcDbLine
 10
94.896700000
 20
50.941400000
 30
0.000000000
 11
94.896700000
 21
64.741400000
 31
0.000000000
  0
LINE
  5
A3F
330
A02
100
AcDbEntity
  8
Sketch025
100
AcDbLine
 10
94.896700000
 20
64.741400000
 30
0.000000000
 11
81.096700000
 21
64.741400000
 31
0.000000000
  0
LINE
  5
A40
330
A02
100
AcDbEntity
  8
Sketch025
100
AcDbLine
 10
100.146700000
 20
66.131400000
 30
0.000000000
 11
100.146700000
 21
52.331400000
 31
0.000000000
  0
LINE
  5
A41
330
A02
100
AcDbEntity
  8
Sketch025
100
AcDbLine
 10
100.146700000
 20
52.331400000
 30
0.000000000
 11
113.946700000
 21
52.331400000
 31
0.000000000
  0
LINE
  5
A42
330
A02
100
AcDbEntity
  8
Sketch025
100
AcDbLine
 10
113.946700000
 20
52.331400000
 30
0.000000000
 11
113.946700000
 21
66.131400000
 31
0.000000000
  0
LINE
  5
A43
330
A02
100
AcDbEntity
  8
Sketch025
100
AcDbLine
 10
113.946700000
 20
66.131400000
 30
0.000000000
 11
100.146700000
 21
66.131400000
 31
0.000000000
  0
LINE
  5
A44
330
A02
100
AcDbEntity
  8
Sketch025
100
AcDbLine
 10
119.196700000
 20
64.741400000
 30
0.000000000
 11
119.196700000
 21
50.941400000
 31
0.000000000
  0
LINE
  5
A45
330
A02
100
AcDbEntity
  8
Sketch025
100
AcDbLine
 10
119.196700000
 20
50.941400000
 30
0.000000000
 11
132.996700000
 21
50.941400000
 31
0.000000000
  0
LINE
  5
A46
330
A02
100
AcDbEntity
  8
Sketch025
100
AcDbLine
 10
132.996700000
 20
50.941400000
 30
0.000000000
 11
132.996700000
 21
64.741400000
 31
0.000000000
  0
LINE
  5
A47
330
A02
100
AcDbEntity
  8
Sketch025
100
AcDbLine
 10
132.996700000
 20
64.741400000
 30
0.000000000
 11
119.196700000
 21
64.741400000
 31
0.000000000
  0
LINE
  5
A48
330
A02
100
AcDbEntity
  8
Sketch025
100
AcDbLine
 10
138.246700000
 20
59.941400000
 30
0.000000000
 11
138.246700000
 21
46.141400000
 31
0.000000000
  0
LINE
  5
A49
330
A02
100
AcDbEntity
  8
Sketch025
100
AcDbLine
 10
138.246700000
 20
46.141400000
 30
0.000000000
 11
152.046700000
 21
46.141400000
 31
0.000000000
  0
LINE
  5
A4A
330
A02
100
AcDbEntity
  8
Sketch025
100
AcDbLine
 10
152.046700000
 20
46.141400000
 30
0.000000000
 11
152.046700000
 21
59.941400000
 31
0.000000000
  0
LINE
  5
A4B
330
A02
100
AcDbEntity
  8
Sketch025
100
AcDbLine
 10
152.046700000
 20
59.941400000
 30
0.000000000
 11
138.246700000
 21
59.941400000
 31
0.000000000
  0
LINE
  5
A4C
330
A02
100
AcDbEntity
  8
Sketch025
100
AcDbLine
 10
157.296700000
 20
58.441400000
 30
0.000000000
 11
157.296700000
 21
44.641400000
 31
0.000000000
  0
LINE
  5
A4D
330
A02
100
AcDbEntity
  8
Sketch025
100
AcDbLine
 10
157.296700000
 20
44.641400000
 30
0.000000000
 11
171.096700000
 21
44.641400000
 31
0.000000000
  0
LINE
  5
A4E
330
A02
100
AcDbEntity
  8
Sketch025
100
AcDbLine
 10
171.096700000
 20
44.641400000
 30
0.000000000
 11
171.096700000
 21
58.441400000
 31
0.000000000
  0
LINE
  5
A4F
330
A02
100
AcDbEntity
  8
Sketch025
100
AcDbLine
 10
171.096700000
 20
58.441400000
 30
0.000000000
 11
157.296700000
 21
58.441400000
 31
0.000000000
  0
LINE
  5
A50
330
A02
100
AcDbEntity
  8
Sketch025
100
AcDbLine
 10
157.296700000
 20
39.391400000
 30
0.000000000
 11
157.296700000
 21
25.591400000
 31
0.000000000
  0
LINE
  5
A51
330
A02
100
AcDbEntity
  8
Sketch025
100
AcDbLine
 10
157.296700000
 20
25.591400000
 30
0.000000000
 11
171.096700000
 21
25.591400000
 31
0.000000000
  0
LINE
  5
A52
330
A02
100
AcDbEntity
  8
Sketch025
100
AcDbLine
 10
171.096700000
 20
25.591400000
 30
0.000000000
 11
171.096700000
 21
39.391400000
 31
0.000000000
  0
LINE
  5
A53
330
A02
100
AcDbEntity
  8
Sketch025
100
AcDbLine
 10
171.096700000
 20
39.391400000
 30
0.000000000
 11
157.296700000
 21
39.391400000
 31
0.000000000
  0
LINE
  5
A54
330
A02
100
AcDbEntity
  8
Sketch025
100
AcDbLine
 10
138.246700000
 20
40.891400000
 30
0.000000000
 11
138.246700000
 21
27.091400000
 31
0.000000000
  0
LINE
  5
A55
330
A02
100
AcDbEntity
  8
Sketch025
100
AcDbLine
 10
138.246700000
 20
27.091400000
 30
0.000000000
 11
152.046700000
 21
27.091400000
 31
0.000000000
  0
LINE
  5
A56
330
A02
100
AcDbEntity
  8
Sketch025
100
AcDbLine
 10
152.046700000
 20
27.091400000
 30
0.000000000
 11
152.046700000
 21
40.891400000
 31
0.000000000
  0
LINE
  5
A57
330
A02
100
AcDbEntity
  8
Sketch025
100
AcDbLine
 10
152.046700000
 20
40.891400000
 30
0.000000000
 11
138.246700000
 21
40.891400000
 31
0.000000000
  0
LINE
  5
A58
330
A02
100
AcDbEntity
  8
Sketch025
100
AcDbLine
 10
119.196700000
 20
45.691400000
 30
0.000000000
 11
119.196700000
 21
31.891400000
 31
0.000000000
  0
LINE
  5
A59
330
A02
100
AcDbEntity
  8
Sketch025
100
AcDbLine
 10
119.196700000
 20
31.891400000
 30
0.000000000
 11
132.996700000
 21
31.891400000
 31
0.000000000
  0
LINE
  5
A5A
330
A02
100
AcDbEntity
  8
Sketch025
100
AcDbLine
 10
132.996700000
 20
31.891400000
 30
0.000000000
 11
132.996700000
 21
45.691400000
 31
0.000000000
  0
LINE
  5
A5B
330
A02
100
AcDbEntity
  8
Sketch025
100
AcDbLine
 10
132.996700000
 20
45.691400000
 30
0.000000000
 11
119.196700000
 21
45.691400000
 31
0.000000000
  0
LINE
  5
A5C
330
A02
100
AcDbEntity
  8
Sketch025
100
AcDbLine
 10
100.146700000
 20
47.081400000
 30
0.000000000
 11
100.146700000
 21
33.281400000
 31
0.000000000
  0
LINE
  5
A5D
330
A02
100
AcDbEntity
  8
Sketch025
100
AcDbLine
 10
100.146700000
 20
33.281400000
 30
0.000000000
 11
113.946700000
 21
33.281400000
 31
0.000000000
  0
LINE
  5
A5E
330
A02
100
AcDbEntity
  8
Sketch025
100
AcDbLine
 10
113.946700000
 20
33.281400000
 30
0.000000000
 11
113.946700000
 21
47.081400000
 31
0.000000000
  0
LINE
  5
A5F
330
A02
100
AcDbEntity
  8
Sketch025
100
AcDbLine
 10
113.946700000
 20
47.081400000
 30
0.000000000
 11
100.146700000
 21
47.081400000
 31
0.000000000
  0
LINE
  5
A60
330
A02
100
AcDbEntity
  8
Sketch025
100
AcDbLine
 10
81.096700000
 20
45.691400000
 30
0.000000000
 11
81.096700000
 21
31.891400000
 31
0.000000000
  0
LINE
  5
A61
330
A02
100
AcDbEntity
  8
Sketch025
100
AcDbLine
 10
81.096700000
 20
31.891400000
 30
0.000000000
 11
94.896700000
 21
31.891400000
 31
0.000000000
  0
LINE
  5
A62
330
A02
100
AcDbEntity
  8
Sketch025
100
AcDbLine
 10
94.896700000
 20
31.891400000
 30
0.000000000
 11
94.896700000
 21
45.691400000
 31
0.000000000
  0
LINE
  5
A63
330
A02
100
AcDbEntity
  8
Sketch025
100
AcDbLine
 10
94.896700000
 20
45.691400000
 30
0.000000000
 11
81.096700000
 21
45.691400000
 31
0.000000000
  0
LINE
  5
A64
330
A02
100
AcDbEntity
  8
Sketch025
100
AcDbLine
 10
62.046700000
 20
43.291400000
 30
0.000000000
 11
62.046700000
 21
29.491400000
 31
0.000000000
  0
LINE
  5
A65
330
A02
100
AcDbEntity
  8
Sketch025
100
AcDbLine
 10
62.046700000
 20
29.491400000
 30
0.000000000
 11
75.846700000
 21
29.491400000
 31
0.000000000
  0
LINE
  5
A66
330
A02
100
AcDbEntity
  8
Sketch025
100
AcDbLine
 10
75.846700000
 20
29.491400000
 30
0.000000000
 11
75.846700000
 21
43.291400000
 31
0.000000000
  0
LINE
  5
A67
330
A02
100
AcDbEntity
  8
Sketch025
100
AcDbLine
 10
75.846700000
 20
43.291400000
 30
0.000000000
 11
62.046700000
 21
43.291400000
 31
0.000000000
  0
LINE
  5
A68
330
A02
100
AcDbEntity
  8
Sketch025
100
AcDbLine
 10
38.121500000
 20
52.156100000
 30
0.000000000
 11
38.121500000
 21
38.356100000
 31
0.000000000
  0
LINE
  5
A69
330
A02
100
AcDbEntity
  8
Sketch025
100
AcDbLine
 10
38.121500000
 20
38.356100000
 30
0.000000000
 11
51.921500000
 21
38.356100000
 31
0.000000000
  0
LINE
  5
A6A
330
A02
100
AcDbEntity
  8
Sketch025
100
AcDbLine
 10
51.921500000
 20
38.356100000
 30
0.000000000
 11
51.921500000
 21
52.156100000
 31
0.000000000
  0
LINE
  5
A6B
330
A02
100
AcDbEntity
  8
Sketch025
100
AcDbLine
 10
51.921500000
 20
52.156100000
 30
0.000000000
 11
38.121500000
 21
52.156100000
 31
0.000000000
  0
LINE
  5
A6C
330
A02
100
AcDbEntity
  8
Sketch025
100
AcDbLine
 10
71.496700000
 20
24.241400000
 30
0.000000000
 11
71.496700000
 21
10.441400000
 31
0.000000000
  0
LINE
  5
A6D
330
A02
100
AcDbEntity
  8
Sketch025
100
AcDbLine
 10
71.496700000
 20
10.441400000
 30
0.000000000
 11
85.296700000
 21
10.441400000
 31
0.000000000
  0
LINE
  5
A6E
330
A02
100
AcDbEntity
  8
Sketch025
100
AcDbLine
 10
85.296700000
 20
10.441400000
 30
0.000000000
 11
85.296700000
 21
24.241400000
 31
0.000000000
  0
LINE
  5
A6F
330
A02
100
AcDbEntity
  8
Sketch025
100
AcDbLine
 10
85.296700000
 20
24.241400000
 30
0.000000000
 11
71.496700000
 21
24.241400000
 31
0.000000000
  0
LINE
  5
A70
330
A02
100
AcDbEntity
  8
Sketch025
100
AcDbLine
 10
90.544400000
 20
25.613100000
 30
0.000000000
 11
90.544400000
 21
11.813100000
 31
0.000000000
  0
LINE
  5
A71
330
A02
100
AcDbEntity
  8
Sketch025
100
AcDbLine
 10
90.544400000
 20
11.813100000
 30
0.000000000
 11
104.344400000
 21
11.813100000
 31
0.000000000
  0
LINE
  5
A72
330
A02
100
AcDbEntity
  8
Sketch025
100
AcDbLine
 10
104.344400000
 20
11.813100000
 30
0.000000000
 11
104.344400000
 21
25.613100000
 31
0.000000000
  0
LINE
  5
A73
330
A02
100
AcDbEntity
  8
Sketch025
100
AcDbLine
 10
104.344400000
 20
25.613100000
 30
0.000000000
 11
90.544400000
 21
25.613100000
 31
0.000000000
  0
LINE
  5
A74
330
A02
100
AcDbEntity
  8
Sketch025
100
AcDbLine
 10
109.596700000
 20
26.641400000
 30
0.000000000
 11
109.596700000
 21
12.841400000
 31
0.000000000
  0
LINE
  5
A75
330
A02
100
AcDbEntity
  8
Sketch025
100
AcDbLine
 10
109.596700000
 20
12.841400000
 30
0.000000000
 11
123.396700000
 21
12.841400000
 31
0.000000000
  0
LINE
  5
A76
330
A02
100
AcDbEntity
  8
Sketch025
100
AcDbLine
 10
123.396700000
 20
12.841400000
 30
0.000000000
 11
123.396700000
 21
26.641400000
 31
0.000000000
  0
LINE
  5
A77
330
A02
100
AcDbEntity
  8
Sketch025
100
AcDbLine
 10
123.396700000
 20
26.641400000
 30
0.000000000
 11
109.596700000
 21
26.641400000
 31
0.000000000
  0
LINE
  5
A78
330
A02
100
AcDbEntity
  8
Sketch025
100
AcDbLine
 10
55.243300000
 20
26.919500000
 30
0.000000000
 11
62.143300000
 21
14.968400000
 31
0.000000000
  0
LINE
  5
A79
330
A02
100
AcDbEntity
  8
Sketch025
100
AcDbLine
 10
50.192100000
 20
8.068400000
 30
0.000000000
 11
62.143300000
 21
14.968400000
 31
0.000000000
  0
LINE
  5
A7A
330
A02
100
AcDbEntity
  8
Sketch025
100
AcDbLine
 10
43.292100000
 20
20.019500000
 30
0.000000000
 11
50.192100000
 21
8.068400000
 31
0.000000000
  0
LINE
  5
A7B
330
A02
100
AcDbEntity
  8
Sketch025
100
AcDbLine
 10
55.243300000
 20
26.919500000
 30
0.000000000
 11
43.292100000
 21
20.019500000
 31
0.000000000
  0
LINE
  5
A7C
330
A02
100
AcDbEntity
  8
Sketch025
100
AcDbLine
 10
51.176500000
 20
0.453300000
 30
0.000000000
 11
36.525200000
 21
25.875900000
 31
0.000000000
  0
LINE
  5
A7D
330
A02
100
AcDbEntity
  8
Sketch025
100
AcDbLine
 10
36.525200000
 20
25.875900000
 30
0.000000000
 11
35.966400000
 21
27.145900000
 31
0.000000000
  0
LINE
  5
A7E
330
A02
100
AcDbEntity
  8
Sketch025
100
AcDbLine
 10
35.966400000
 20
27.145900000
 30
0.000000000
 11
35.699700000
 21
28.161900000
 31
0.000000000
  0
LINE
  5
A7F
330
A02
100
AcDbEntity
  8
Sketch025
100
AcDbLine
 10
35.699700000
 20
28.161900000
 30
0.000000000
 11
35.445700000
 21
29.431900000
 31
0.000000000
  0
LINE
  5
A80
330
A02
100
AcDbEntity
  8
Sketch025
100
AcDbLine
 10
35.445700000
 20
29.431900000
 30
0.000000000
 11
35.318700000
 21
30.892400000
 31
0.000000000
  0
LINE
  5
A81
330
A02
100
AcDbEntity
  8
Sketch025
100
AcDbLine
 10
35.318700000
 20
30.892400000
 30
0.000000000
 11
35.255200000
 21
31.717900000
 31
0.000000000
  0
LINE
  5
A82
330
A02
100
AcDbEntity
  8
Sketch025
100
AcDbLine
 10
35.255200000
 20
31.717900000
 30
0.000000000
 11
35.191700000
 21
32.924400000
 31
0.000000000
  0
LINE
  5
A83
330
A02
100
AcDbEntity
  8
Sketch025
100
AcDbLine
 10
35.191700000
 20
32.924400000
 30
0.000000000
 11
35.247000000
 21
106.797000000
 31
0.000000000
  0
LINE
  5
A84
330
A02
100
AcDbEntity
  8
Sketch025
100
AcDbLine
 10
35.247000000
 20
106.797000000
 30
0.000000000
 11
35.269000000
 21
107.012700000
 31
0.000000000
  0
LINE
  5
A85
330
A02
100
AcDbEntity
  8
Sketch025
100
AcDbLine
 10
35.269000000
 20
107.012700000
 30
0.000000000
 11
35.330100000
 21
107.209800000
 31
0.000000000
  0
LINE
  5
A86
330
A02
100
AcDbEntity
  8
Sketch025
100
AcDbLine
 10
35.330100000
 20
107.209800000
 30
0.000000000
 11
35.426900000
 21
107.388200000
 31
0.000000000
  0
LINE
  5
A87
330
A02
100
AcDbEntity
  8
Sketch025
100
AcDbLine
 10
35.426900000
 20
107.388200000
 30
0.000000000
 11
35.555000000
 21
107.543600000
 31
0.000000000
  0
LINE
  5
A88
330
A02
100
AcDbEntity
  8
Sketch025
100
AcDbLine
 10
35.555000000
 20
107.543600000
 30
0.000000000
 11
35.710400000
 21
107.671700000
 31
0.000000000
  0
LINE
  5
A89
330
A02
100
AcDbEntity
  8
Sketch025
100
AcDbLine
 10
35.710400000
 20
107.671700000
 30
0.000000000
 11
35.888800000
 21
107.768500000
 31
0.000000000
  0
LINE
  5
A8A
330
A02
100
AcDbEntity
  8
Sketch025
100
AcDbLine
 10
35.888800000
 20
107.768500000
 30
0.000000000
 11
36.085900000
 21
107.829600000
 31
0.000000000
  0
LINE
  5
A8B
330
A02
100
AcDbEntity
  8
Sketch025
100
AcDbLine
 10
36.085900000
 20
107.829600000
 30
0.000000000
 11
36.301100000
 21
107.851100000
 31
0.000000000
  0
LINE
  5
A8C
330
A02
100
AcDbEntity
  8
Sketch025
100
AcDbLine
 10
36.301100000
 20
107.851100000
 30
0.000000000
 11
126.250700000
 21
107.854400000
 31
0.000000000
  0
LINE
  5
A8D
330
A02
100
AcDbEntity
  8
Sketch025
100
AcDbLine
 10
126.250700000
 20
107.854400000
 30
0.000000000
 11
172.342200000
 21
100.920100000
 31
0.000000000
  0
LINE
  5
A8E
330
A02
100
AcDbEntity
  8
Sketch025
100
AcDbLine
 10
172.342200000
 20
100.920100000
 30
0.000000000
 11
173.058600000
 21
100.575000000
 31
0.000000000
  0
LINE
  5
A8F
330
A02
100
AcDbEntity
  8
Sketch025
100
AcDbLine
 10
173.058600000
 20
100.575000000
 30
0.000000000
 11
173.680100000
 21
100.031200000
 31
0.000000000
  0
LINE
  5
A90
330
A02
100
AcDbEntity
  8
Sketch025
100
AcDbLine
 10
173.680100000
 20
100.031200000
 30
0.000000000
 11
174.048400000
 21
99.396200000
 31
0.000000000
  0
LINE
  5
A91
330
A02
100
AcDbEntity
  8
Sketch025
100
AcDbLine
 10
174.048400000
 20
99.396200000
 30
0.000000000
 11
174.251600000
 21
98.685000000
 31
0.000000000
  0
LINE
  5
A92
330
A02
100
AcDbEntity
  8
Sketch025
100
AcDbLine
 10
174.251600000
 20
98.685000000
 30
0.000000000
 11
174.251600000
 21
23.856600000
 31
0.000000000
  0
LINE
  5
A93
330
A02
100
AcDbEntity
  8
Sketch025
100
AcDbLine
 10
174.251600000
 20
23.856600000
 30
0.000000000
 11
174.214100000
 21
23.542800000
 31
0.000000000
  0
LINE
  5
A94
330
A02
100
AcDbEntity
  8
Sketch025
100
AcDbLine
 10
174.214100000
 20
23.542800000
 30
0.000000000
 11
174.126700000
 21
23.261100000
 31
0.000000000
  0
LINE
  5
A95
330
A02
100
AcDbEntity
  8
Sketch025
100
AcDbLine
 10
174.126700000
 20
23.261100000
 30
0.000000000
 11
173.988500000
 21
23.006300000
 31
0.000000000
  0
LINE
  5
A96
330
A02
100
AcDbEntity
  8
Sketch025
100
AcDbLine
 10
173.988500000
 20
23.006300000
 30
0.000000000
 11
173.805400000
 21
22.784400000
 31
0.000000000
  0
LINE
  5
A97
330
A02
100
AcDbEntity
  8
Sketch025
100
AcDbLine
 10
173.805400000
 20
22.784400000
 30
0.000000000
 11
173.583500000
 21
22.601300000
 31
0.000000000
  0
LINE
  5
A98
330
A02
100
AcDbEntity
  8
Sketch025
100
AcDbLine
 10
173.583500000
 20
22.601300000
 30
0.000000000
 11
173.328700000
 21
22.463100000
 31
0.000000000
  0
LINE
  5
A99
330
A02
100
AcDbEntity
  8
Sketch025
100
AcDbLine
 10
173.328700000
 20
22.463100000
 30
0.000000000
 11
173.047000000
 21
22.375700000
 31
0.000000000
  0
LINE
  5
A9A
330
A02
100
AcDbEntity
  8
Sketch025
100
AcDbLine
 10
173.047000000
 20
22.375700000
 30
0.000000000
 11
172.727600000
 21
22.347900000
 31
0.000000000
  0
LINE
  5
A9B
330
A02
100
AcDbEntity
  8
Sketch025
100
AcDbLine
 10
172.727600000
 20
22.347900000
 30
0.000000000
 11
130.266100000
 21
22.347800000
 31
0.000000000
  0
LINE
  5
A9C
330
A02
100
AcDbEntity
  8
Sketch025
100
AcDbLine
 10
130.266100000
 20
22.347800000
 30
0.000000000
 11
129.560200000
 21
22.276800000
 31
0.000000000
  0
LINE
  5
A9D
330
A02
100
AcDbEntity
  8
Sketch025
100
AcDbLine
 10
129.560200000
 20
22.276800000
 30
0.000000000
 11
128.903000000
 21
22.073000000
 31
0.000000000
  0
LINE
  5
A9E
330
A02
100
AcDbEntity
  8
Sketch025
100
AcDbLine
 10
128.903000000
 20
22.073000000
 30
0.000000000
 11
128.308500000
 21
21.750500000
 31
0.000000000
  0
LINE
  5
A9F
330
A02
100
AcDbEntity
  8
Sketch025
100
AcDbLine
 10
128.308500000
 20
21.750500000
 30
0.000000000
 11
127.790600000
 21
21.323300000
 31
0.000000000
  0
LINE
  5
AA0
330
A02
100
AcDbEntity
  8
Sketch025
100
AcDbLine
 10
127.790600000
 20
21.323300000
 30
0.000000000
 11
127.363400000
 21
20.805400000
 31
0.000000000
  0
LINE
  5
AA1
330
A02
100
AcDbEntity
  8
Sketch025
100
AcDbLine
 10
127.363400000
 20
20.805400000
 30
0.000000000
 11
127.040900000
 21
20.210900000
 31
0.000000000
  0
LINE
  5
AA2
330
A02
100
AcDbEntity
  8
Sketch025
100
AcDbLine
 10
127.040900000
 20
20.210900000
 30
0.000000000
 11
126.837100000
 21
19.553700000
 31
0.000000000
  0
LINE
  5
AA3
330
A02
100
AcDbEntity
  8
Sketch025
100
AcDbLine
 10
126.837100000
 20
19.553700000
 30
0.000000000
 11
126.740900000
 21
18.845200000
 31
0.000000000
  0
LINE
  5
AA4
330
A02
100
AcDbEntity
  8
Sketch025
100
AcDbLine
 10
126.740900000
 20
18.845200000
 30
0.000000000
 11
126.739800000
 21
9.113800000
 31
0.000000000
  0
LINE
  5
AA5
330
A02
100
AcDbEntity
  8
Sketch025
100
AcDbLine
 10
126.739800000
 20
9.113800000
 30
0.000000000
 11
126.709300000
 21
8.833700000
 31
0.000000000
  0
LINE
  5
AA6
330
A02
100
AcDbEntity
  8
Sketch025
100
AcDbLine
 10
126.709300000
 20
8.833700000
 30
0.000000000
 11
126.622000000
 21
8.552000000
 31
0.000000000
  0
LINE
  5
AA7
330
A02
100
AcDbEntity
  8
Sketch025
100
AcDbLine
 10
126.622000000
 20
8.552000000
 30
0.000000000
 11
126.483800000
 21
8.297200000
 31
0.000000000
  0
LINE
  5
AA8
330
A02
100
AcDbEntity
  8
Sketch025
100
AcDbLine
 10
126.483800000
 20
8.297200000
 30
0.000000000
 11
126.300700000
 21
8.075300000
 31
0.000000000
  0
LINE
  5
AA9
330
A02
100
AcDbEntity
  8
Sketch025
100
AcDbLine
 10
126.300700000
 20
8.075300000
 30
0.000000000
 11
126.078700000
 21
7.892200000
 31
0.000000000
  0
LINE
  5
AAA
330
A02
100
AcDbEntity
  8
Sketch025
100
AcDbLine
 10
126.078700000
 20
7.892200000
 30
0.000000000
 11
125.823900000
 21
7.754000000
 31
0.000000000
  0
LINE
  5
AAB
330
A02
100
AcDbEntity
  8
Sketch025
100
AcDbLine
 10
125.823900000
 20
7.754000000
 30
0.000000000
 11
125.542300000
 21
7.666600000
 31
0.000000000
  0
LINE
  5
AAC
330
A02
100
AcDbEntity
  8
Sketch025
100
AcDbLine
 10
125.542300000
 20
7.666600000
 30
0.000000000
 11
125.239800000
 21
7.636200000
 31
0.000000000
  0
LINE
  5
AAD
330
A02
100
AcDbEntity
  8
Sketch025
100
AcDbLine
 10
125.239800000
 20
7.636200000
 30
0.000000000
 11
64.866500000
 21
7.636200000
 31
0.000000000
  0
LINE
  5
AAE
330
A02
100
AcDbEntity
  8
Sketch025
100
AcDbLine
 10
64.866500000
 20
7.636200000
 30
0.000000000
 11
52.141500000
 21
0.269700000
 31
0.000000000
  0
LINE
  5
AAF
330
A02
100
AcDbEntity
  8
Sketch025
100
AcDbLine
 10
52.141500000
 20
0.269700000
 30
0.000000000
 11
51.973600000
 21
0.184200000
 31
0.000000000
  0
LINE
  5
AB0
330
A02
100
AcDbEntity
  8
Sketch025
100
AcDbLine
 10
51.973600000
 20
0.184200000
 30
0.000000000
 11
51.814900000
 21
0.137000000
 31
0.000000000
  0
LINE
  5
AB1
330
A02
100
AcDbEntity
  8
Sketch025
100
AcDbLine
 10
51.814900000
 20
0.137000000
 30
0.000000000
 11
51.666000000
 21
0.127500000
 31
0.000000000
  0
LINE
  5
AB2
330
A02
100
AcDbEntity
  8
Sketch025
100
AcDbLine
 10
51.666000000
 20
0.127500000
 30
0.000000000
 11
51.527200000
 21
0.155000000
 31
0.000000000
  0
LINE
  5
AB3
330
A02
100
AcDbEntity
  8
Sketch025
100
AcDbLine
 10
51.527200000
 20
0.155000000
 30
0.000000000
 11
51.399000000
 21
0.218900000
 31
0.000000000
  0
LINE
  5
AB4
330
A02
100
AcDbEntity
  8
Sketch025
100
AcDbLine
 10
51.399000000
 20
0.218900000
 30
0.000000000
 11
51.282000000
 21
0.318600000
 31
0.000000000
  0
LINE
  5
AB5
330
A02
100
AcDbEntity
  8
Sketch025
100
AcDbLine
 10
51.282000000
 20
0.318600000
 30
0.000000000
 11
51.176500000
 21
0.453300000
 31
0.000000000
  0
LINE
  5
AB6
330
A02
100
AcDbEntity
  8
Sketch025
100
AcDbLine
 10
39.676700000
 20
103.051400000
 30
0.000000000
 11
39.676700000
 21
72.551400000
 31
0.000000000
  0
LINE
  5
AB7
330
A02
100
AcDbEntity
  8
Sketch025
100
AcDbLine
 10
39.676700000
 20
72.551400000
 30
0.000000000
 11
52.676700000
 21
72.551400000
 31
0.000000000
  0
LINE
  5
AB8
330
A02
100
AcDbEntity
  8
Sketch025
100
AcDbLine
 10
52.676700000
 20
72.551400000
 30
0.000000000
 11
52.676700000
 21
103.051400000
 31
0.000000000
  0
LINE
  5
AB9
330
A02
100
AcDbEntity
  8
Sketch025
100
AcDbLine
 10
52.676700000
 20
103.051400000
 30
0.000000000
 11
39.676700000
 21
103.051400000
 31
0.000000000
  0
CIRCLE
  5
ABA
330
A02
100
AcDbEntity
  8
Sketch025
100
AcDbCircle
 10
53.484150000
 20
29.421452000
 30
0.000000000
 40
1.000000000
  0
CIRCLE
  5
ABB
330
A02
100
AcDbEntity
  8
Sketch025
100
AcDbCircle
 10
78.938618000
 20
47.975087000
 30
0.000000000
 40
1.000000000
  0
CIRCLE
  5
ABC
330
A02
100
AcDbEntity
  8
Sketch025
100
AcDbCircle
 10
78.875416000
 20
86.151173000
 30
0.000000000
 40
1.000000000
  0
CIRCLE
  5
ABD
330
A02
100
AcDbEntity
  8
Sketch025
100
AcDbCircle
 10
154.254246000
 20
81.744996000
 30
0.000000000
 40
1.000000000
  0
CIRCLE
  5
ABE
330
A02
100
AcDbEntity
  8
Sketch025
100
AcDbCircle
 10
154.275669000
 20
43.549992000
 30
0.000000000
 40
1.000000000
  0
ENDSEC
  0
SECTION
  2
OBJECTS
  0
DICTIONARY
  5
F000
330
0
100
AcDbDictionary
  3
ACAD_GROUP
350
F001
  0
DICTIONARY
  5
F001
330
F000
100
AcDbDictionary
  0
ENDSEC
  0
EOF